<mxfile host="65bd71144e">
    <diagram id="A_9PtFiDHTZF1DUxv1hY" name="Page-1">
        <mxGraphModel dx="760" dy="390" grid="1" gridSize="10" guides="1" tooltips="1" connect="1" arrows="1" fold="1" page="1" pageScale="1" pageWidth="827" pageHeight="1169" math="0" shadow="0">
            <root>
                <mxCell id="0"/>
                <mxCell id="1" parent="0"/>
                <mxCell id="2" value="" style="shape=image;verticalLabelPosition=bottom;labelBackgroundColor=default;verticalAlign=top;aspect=fixed;imageAspect=0;image=data:image/png,iVBORw0KGgoAAAANSUhEUgAAAggAAAH+CAYAAAD53/b6AAAAAXNSR0IArs4c6QAAIABJREFUeF7sXQWYlFXbvqdju3fp7m5BBEERFAVRDETFz+7+bPns7gBFRUFRwUBCUEKlpLubXZbtjpnd2Zn5//ssA1uzO7nBnnNdexH7vu855zl1n/spBaCww2mp5lfOX6rz36hUKoSFhSEiIgJ6vb7O2yMbICUgJSAlICUgJdAQJFBcXIysrCxkZmZCURNAUKvV4IHbEAo7ZrfbBTCIiYmFRqNuCM2WbZQSkBKQEpASkBKoNxKw2WxIS0urHiAoFECHDh3QrFmzetNwZw2xWq3YvHkz8vPz0bFjR+h0erD9skgJNEYJmEwm8IeA2d9FoVCAF4mgoCDw77JICUgJNHwJ8MJdLYPAtd6lSxe0aNECJSUlIKqoj4WbEzfCf//9F3l5eejZs2d9bKZsk5RArUiAayExMREWiwUhISF+r5NrrqioCG3btm0wbKPfhSIrkBI4ByTgEkBo3rw5Tpw4IXQS9a0olUq0a9cOBoNBAoT6NjiyPXUiAQKEhIQE9O/fH19//bW43fujsJ6jR4/inbffwW8LfhOqPX8xCPwu13ptFdYVGhrqt/7UVj9kPVIC3kjAZYDAjYAAITIyss4N/3gzokohNzdX3JKoUjAajRIgeDMT5LvnjAQcAGHw4MH44YcfcOzYMbFOfF24Bpf+vhRLlizBhk0boNFo/Hag0g4qOjpagB3++AuIUEZkQ1JSUtC6detaBSW+Hh/5PSkBbyXgFkCgfv/TTz/F8OHDxYZTG/rNih1kncePH0dKcgo++vgjbN++XQIEb2eBfP+ckkBZgPD999/jwIEDfgMIixctxt9//43tO7ajV69efmMrOEA0muIlhRcCfxpOc587dOgQWrZsKQHCObUyZGfclYDbAOGrr77CRRddhMLCQmGXUNuFmx83vFOJpzBt+jTs3LlTAoTaHgRZX72WQF0BhL59+woWwV8lKSkJGRkZ6Ny5s98BwsGDByVA8NdAyu82GAm4DRBmzJiBCy+8EEeOHEFBQUGtd5Sb39q1a3Ho4CGhUkhKTpIAodZHQVZYnyUgAYJ3o0MGQQIE72Qo3z43JOARQKCK4fDhw3UCEOhJQYBw8MBBbNi4QegKpQ3CuTEZZS98IwEJELyTowQI3slPvl0/JEA7HYetDvcET0wCGjVA0CkAgxL09SxX6DluVihg09ihUFb2I7fbFSg2AfC/i3n9mGmyFQ1KAhIgeDdcEiB4Jz/5dmUJOGxmaNjLwn873PP9Yc/H77dv3x6xsbGiLtrv7N27122zgEYNEMYE2XBTSBGUFRBCkV2B+RodUkfkwBhVWGm0CzONWP91KEqK5VKQEqh/EpAAwbsxkQDBO/nJt89KgO6yMTExIjYPbfZoM8fDulOnThgyZAiys7OxePFiEdTMl4VefS+++CKioqIEi8DQyVOnThX1uVMaNUC4OtiK+yMKUdG72mxX4lutEUmXp8AYm1ZJngVpkfj7gzhYitwRtXxWSqB2JCABgndylgDBO/nJt0slwJs7Y/Rcd9114jbPdblr1y7MmTNHAIZJkyYhPT3do4O7oowJAggKqIJnBETGLnr66afPBEqjveDbb78tvHMIWrRarYg6XJPawecAgRWW9W5whGGtadJUfM+Zr7MvbRCuDrHi/vCqAIIC32oDJECoadDk7+ulBOozQGBAMwZU4gZFapVeCfSIcqVILwZXpCSfqQ8SYJLA3r17Y8KECSJ+BwMN8kxr2rQpTp06Jdx1+/TpIwDC888/L2743hTGJ7rpppvEgc+YRYyBQjfdsjYIqampWLduHYKDg0WbZs+ejfj4+GpBgs8BAukT+kY7QEKbNm0w/MLhNfoTk2L55ZdfYCo0CUFeetmlohMViwQI3kwj+W5jkIA3AIHvuhqEiPrUsnEQanJzpAskadUePXqINc739+3bh7/++sulOA0SIDSG2dvw+8ib/IgRIzB27FgRVHDVqlXih+tqzJgxGDBggPg71wAPbW8BAr/D715zzTXCzZhnJFmCqtZx2XQJXHfffPONCAzmrPgcIDAG/Nczvz6z4Lt26ypQVE2BTUiBTPt0mqA92Mmbp9xcZZIoCRAa/gKSPfCvBDwFCDk5OUJHSsMm5lWoKbSxOwCB3yJ7MHLkSHGz0el0YvPkbWrevHmCRXAYcDmTjgQI/p038uveSYBzPCwsTACDYcOGwWw2iyBinLf0/ONBvGbNGqFuIFBmnhQyaC+99BKSk5NrpPudtY7feeyxx8R3y4ICrilGUeVlnfmUKoYOZ7veeOMN0T4JEKqQgFQxeLcg5Nv1UwKeAAQC702bNonDulWrVrj11lvFgV5dcRUg8HJAV2QGOGLGR954eMsi1ckblCOmytatW4X+1FOAwM2RoIN/VsxkWd3vKtYnbRDq57yuz63i/GLW4xtvvFHMcxoDzp07V1yMr776apGigOXkyZNgdFMaLl555ZViHWzcuFHYJVDdUJNNQFUy4JyfOHGiCGDIv7MQHHz33XdiTXOddu3aVaxpR/I2goYNGzYIBoEXg1oDCMyPsGPHjvK3gdPugLw19B/QX2wQbOCmjZvK0xunvQkoVBpxcAOpWHzJIAwNUuDKUFThxQCsVCiROzgXhjBzpTaYcnTY9FOg9GKozyu2EbfNHYDAZx06UW5ey5YtEwBh6NChYrNhPgLHplNRpK4ABG6cTZo0ESwiwQEL17DjpkOAwPUeEBCARYsWCbDgLGtsTQwCmUdSu7TcJqXLhFUOlQl1v7zVUfe7YsWKaoGIBAiNePF40HUyB8x6TCBA5o1BtlauXCkMBTkfeY6VtQXgHPzjjz+E3cHo0aMFsNizZw9+/vlnMf89AQlcWw888AC6d+8u6mIKgo8++kgw8iwE+wQvZDLYXq71119/XTAY1dXncxVDRfnu2b1H2BZwMyF6uevuu0RjifCnT5t+Br1wg7j7nrsRGBhY7RD5EiBom3SCrs0AKCpEQrDbShCQvgUXNtmHiOBSv9WyJStfgbmrVLDUfqRpD6avfKWxScAdgMAbOxM6cUNxWEDzwOZhy9vNlClThCV2VcVVgNCtWzehI+U3mRqaNxa+y3bypsPvs07Sr4yO6kzVUBNA4MbIjfriiy8WN7jff/9d3MpI+1522WXiFkdwQEvy6lLXS4DQ2FaMd/3lxfe2225Dv379hE0Nk5cRYA8aNEio0qoqnPf//POPWHfjxo0TQJyggQyeJykMWM+DDz4oDCMJANavX49p06YJNQcLjYIJYKj+4O9pNEnVhgNA1BqD0JAAgrn3eCQNuxvWCmlktRYzhu77Aq93n4m2UZXdHBMyw3HTx1EoqEwueDfT5NtSAj6QgLsAYdasWdiyZcuZmh10PEE7LaOp2/QGIPBWNX78eAEImGiNt3mHTRI3LgIHejTw8N62bZvHAIFt5LcIEs4//3wR6XX37t2CXuUNixbc/Hd1agx+QwIEH0zCRvQJrhfa7XTo0EEcvKT7yYDXlJeENgk8yAlkacxP+5+abvRViZX1nHfeeaJeR9wDMnOff/65YDO47shm3HnnncIWge0lUJ8/f75Yc9XFYPA/g7BnD+b/Ol8selItt99xu2AQiGw+/+xzkbKZhZvRnXfdWasMgqnPBMRfeF8lgKC3mDFi73S83WMG2kYnVxqThIxoXP9BjAQIjWgTaEhd9RYgkMWbPHmyYPzokuhQDVSUgSsMAt/h+7wlEQzwcKaRIm/wjhTU/Dvp1gULFggVgDPKsyYGwdE+gg+yFswZwzp5I6OxWCXVp5NBlQChIc32+tNWHrxxcXEirgENAlk4l8lm8Ye/r7iemCqAXgxk1TxRLbCO8PBwEfOAqoqyqgyCDTJyBCL9+/c/Aw4cEuPvX3vtNaGKqzMGgYJx+FpyoVL3YbPaoFQpRYdoj8DCP2nI5Pi3swb7UsUgAUL9WVyyJb6TgLcAgRvOXXfdJQACwbyzm5CrAIGUJr/FC8LAgQMFI8ELAi8H/CHNSlVAdeCA0nEVIDiYBBqL0dec32eY2ZqYA8cISIDgu7nY2L5EdowHvgMgcI3wpr58+XJxeJPmJ3Ata4PjrZsj1QsMxnTJJZdU8hZ0qCsImst6OHCPoFHwp59+Wq2awe8MQtkJQpREuwNSGtx4aI/gsKp0dSJJgOCqpORzjVUC3gIEHui8CXGNUjVAFUFVxVWA4HiXQIP2AYyDwDrYTrpF//TTTy4FS3IHILBOh2sl95vqbA4q9k0ChMa6crzvd0WAwAOaHgpLly4VBzSjJ1566aU+BQj8Lm0YqEIgWCAzQFVCRSN/rgNe1ml0zB96MFClV93akABBqhi8XxXyC/VKAu4CBEZU27x5c7k+OEK33nHHHUK36guAwG8y+Bktral2IPXJqG8M/1pTDAR3GQRvBkQCBG+k17jfpcdOWRVDTQDBoWJwN0dCRSmTIaDqjvXxW7S7uf3224XqnoWM3bfffitYA6rduP4YI8Gh5nM2an4HCDnZOYhPKA3nyMbHn4g/E+mpRcsW5VQM3IhqU8VQ1GscTl1wV2UjxZJSI8XXun+D1lHplWR3MiMMUz6JQoHMxdC4d4N62nt3AAIPZnoP8JCuWHjLGDVqVJURTfmsuwwC3yFI4GbmCMLEPcHV2727DIKnwyMBgqeSk+/RY+aWW245s2Y4v5mMibEOOPfJoF1wwQVnGATe6HmTp0GtLwvtiF599dUz8RfI3j/zzDNCjedO8TtAoH9nVUaKpDu+mPHFGTdHduiOO++oVSNFBEbCGhLHXau8zOw2BBQmoXVAOvSaym6ORRYlDpxSwmpzR9TyWSmB2pGAOwDBcdBXdUg7DnNnoZc9AQjeSEACBG+kJ9+tDQkQ+JLa5y2dhWuRHgMOd0O6Dpd15ef/8/eeGig66xMv2gQiZBUIyKnKY2yG6sIqV/Ut/wOEehwHoTYmjKxDSqC2JeAuQPC0fRIgeCo5+Z6UgP8lQJDgcCfmWnXEHnGnZgkQ3JGWfFZKoAFIQAIE7wZJqhi8k598+9yRgM8BAukS+hvTldFBsVhtpTS9XqcXoZZpzUzdzMYNG2EuOhttSLhiQCFcIBlooir/a196MZw7wyh7IiVwVgISIHg3GyRA8E5+8u1zRwI+BwgNKZvjuTOMsidSAhIg+GoOSIDgK0nK7zR0CUiA0NBHULZfSqCCBBwMAsOv0rWJhsI1uTN5IkTqNJf9sQyrVq/Clq1bhOV2TSmiPamH7zjiJqSlpYnIcf6qh3XRwIz10MDLn/V4Kgv5npRAbUnA5wCBMaAXL1p8JuEEY0xfOOLCGhcavRp+/ulnEUSJxhWXjb2sSvcqqWKorakh62moEnAABEYRvPuuu7FiefXZC73pJ62wDx85jM1bNouD1ZnHgzd18F3uCQyqxpDMvrb4rtg2uqrR2pvx9SVA8Hbk5PsNWQI+BwiOeAeORcwFVlNsAwqw7HvcZPhOVZuNBAgNebrJtteGBLiWGNJcq9GK5C0FhQXA6ZTr/qifmemyc7JFwhmH1bQ/6vHntyu2t2xKan/0RX5TSqAhSMDnAMHfnZYAwd8Slt8/FyTAmzYjqvn7tu2QFcMyx8TEyBv3uTB5ZB+kBE5LQAIEORWkBM5BCRAY1BY4oPjI9vlLvXAODo/skpRAg5DAOQkQ+vXrV6+E7+rmyWxz3NTlRluvhk82RkpASkBKoFFK4JwECDNnzhShLemuVJeFOlMaVjH1Jy28K+pQy+buZls//PBDYT0tAUJdjpqsW0pASkBKQEpAMIOAwqn5ElMUdOnSBc2bNxdZ13iIzZgxA8OHD8fhw4d9nmDClSFxxQZh3bp1mDdvHpYtWyYCL9VV0el1Ijd4x44dhQwdxppkCdgPGnA6wACTadxzzz0iZrYECHU1YvWnXnfVA41tzrgrH4capP6MsGxJQ5dAY5iDbgOETz/9VCSBOHDgQJ3c0DkozIx19MhRbNy0EUyXyQOYSTD+/fdfkfiCAOGLL75ARnoGjAHGOpuHzFz5yKOPoFu3bmcAAiNI0hWUBmQ07KIrFf+UAKHOhqleVuzu5iMBQs3D2NhkVLNE5BPeSMDdNdoQQapbACE3NxdPPfmUCIP8999/Iz29cipkbwTuyrt22FGQXwCzyYwdu3aINjgDCDx0HfmwXfm2r585fvw4HnzwwTMAgYwBM9KdOnVKMAjcsKiCoHsYXcUkg+DrEWi433N382lsh5+78mmIm3PDnb2No+WNYQ66DRDuvONOdO7cGWvXrnU7t7Svpg2DmNCgb/+B/SJwSkMBCJxQe/fuFcGgHBsW7RI6deokMm1JgOCrGdLwv+Pu5iMBQs1j3thkVLNE5BPeSMDdNdoQQapbACEjIwM6nU4Y25Eq90RA3gyI411HvTxUuegbEkDYtWuXADeOyUJWgYBLAgRfzIxz5xvurq3Gdvi5K5+GuDmfO7P53OxJY5iDLgMEGs9Rb17fCg9YxkzX6/WVbBDqm4qBE0oChPo2g+pne9zdfCRAqHkcG5uMapaIfMIbCbi7RhsiSHUJILRo0ULozD0RiDcD4Mq7jhgDbF9FI0UHQOAzTPBCA0YmrWEaad7YqfdnnxzeBPyTLomO51i/N/2uaIMgAYIrIyqfoQTcXWuN7fBzVz4NcXOWK6F+S6AxzEGXAUL9HiqIA98ZQKB74ahRo7Bt2zYBEC6++GLx58qVKwUrQgYiIiJCqE7ocUCXThpkcgIcPHjQY28NCRDq+6ypv+1zd/ORAKHmsWxsMqpZIvIJbyTg7hptiCD1nAcIwcHB6N69O0aOHCmMKskSkCHgnxqNBqtXrxasgSNOAT0KmOimoKBAAIRVq1aJ5z0pEiBUllrZqJJkZ2SpWgLubj6N7fBzVz4NcXOWa6N+S6AxzEGXAQIPTIdxXX0bNqoMuEFWxSAEBgaiadOmuPbaa4WdQnJysjC0ZF/oTXDs2DHwGcYiYLRD/o7sAZ/je7/99pvH3hr1GSBQXnQBJThyRHh0qF041mRYeICTfWnSpIlgaBhzgsapnhbWScA2ZMgQ8f1NmzZVa9fCusns8D2CO3fmH9/xZAF72jdfv+du2yVAqHkEGpuMapaIfMIbCbi7RhsiSHUJIPB2zYOUXgz1rZAJ6NChQ5WBkmiDwMOfXg4TJ04UhwyjQfKw4+94MDKeAw9KAoMRI0YIVoFqBx6SCQkJwi2RbpWelPoMELRaLcaPH4/Ro0eLPrMQEBA0ERwRGO3ZswetWrXCE088If7/gw8+wKFDhzwRhXiHG3S7du3w3nvvicN76tSp2Lp1a5Xf47j26tULt912mxin2bNnY82aNTXW7bA3IeDjONZ1uO0aGywfkBKQEpASqKcScBkgUC/PDXfo0KHiRllX9DAPlvy8fBSaCrF7125kZGZU6+YYFhaG888/H23btsXmzZtFUCIyBQQAjKFAgMA0tTTEZL/IGhAYEFgw4uHy5cvPGDM6bqWOP2tCkP4CCDa7EiarARa72uVppVTYYFCaoVFaxDsERHfccQeuuuoqoUKhdwX7RflQHgSDb7zxhghExWBPNOj87LPPEB8fL55j3x1zwGHkSeDlKHyG/88f/r8jMFT79u1FzgmW5557TrAIVRWyPQ8//DAuueQSARAWLlyI999/vxyLUDa3BethHQR7BDQEF3PmzMH3339fZ3PV5cGRD0oJSAlICdRDCbgFEHgb+/LLL4U+nxRxTQekP/rLOo8dPSYiEvImumXrlmoBAg96RiscNmwYtm/fjqioKBEJkgfk+vXrBUPAZ/r06SPob9LaVDHwkNy3b5/4oREjD3syKUymxN/RToEAo7riL4CQbQnB0cKmKLGrStNpuFAUsCFCk4eWxpNQKazlAAKZghdeeEGAJjIGTz31lOjzTz/9hG+//VYALILDLVu2CBnwh/JnuG3KsWvXriAjsXPnTsHMUIaUEQ9pAjR+n8aeBBlkEFwBCGzHK6+8ItrBQlk+8sgjArSxUK1E2xKyH6y7WbNmIj8ImYMbb7wRrVu3xj///CP6wPrdUU+4IE75SAOWgCf7llRPNOABl033WAIeAwTeMOti0+Xi5kHEPAc//PADDhw8UGOgJN40eRMlTc6DhUCBC54HG2/E/KYDENCLgaCAYIFsAilwHmo8fHjoOGwTyKgQLNQ+QFDglDkKJwqbQKuyIESdB7NVj7wSI5xm3TrdSD7fM+igYBHKMghkD3ibJwjgDZwAgYBqxYoV4uZOVQBB02uvvSbA1aRJkwR1z4OeYIEHMg9/Mg4EDZdeeimuvvpqIWsWMgiMvMlEX3Q3rQkgkA2g6oMMAtU7bCvHi+/9/vvv4ntMIvbiiy+KceL40TaCIIJgkEwQgQMBD/tGoFETmPN4BckXG5wEJEBocEMmG1xHEnAbINR1NkcubuqiDx44iA0bN1SbrKlsoCSyBCxkPghs+B3ePHkYOaJCkqLmDZSHksNAz2GUx+crqhhqGjN/MAh2KHDKFI0T5li0MKSgqT4FhSUB2JPfCiW2CioHJuq0n2UYtEoLegQfglZZXA4gEBDx8OeByhv7k08+ibi4OPz888/iFv7mm28KgPDMM88IhoBgguCKdik0cqQhIQ9uMjr9+/cX71NFMH/+fHHjv/XWW4Wcp02bJm7zVBWwOFMxEKQ8/fTTQp3FxFs87Pv27StA2qOPPiraQvbg9ddfFyCE7WBbd+zYIcaUwIK/nzt3rlAxEMzWlUqspjkif1/7EpAAofZlLmtsmBJocADB1XTPzOZ4LkZSLAsQmunS0dSQgoISI/bntzytcihVOgSqCxGmyUVacThMVq2Ync4AAgETI2XycOUNnzd2MiU88AmW3nnnnTMAgUaKVDmQ7qf6gIU2Gy+//LJgD2655RbcfPPN4j3aAPDP6667TjxLEEHjx3fffdcpQHAwO6+++qpgMz7//HNx+3/88ccFc0A2g9k8HQCB6oy3335b2JIQ/BEIvvTSS+jXr59Qh82cObNhrkzZar9JQAIEv4lWfvgck4AECH4cUL8yCKY4qBQ2hKgLUWjTwnwaBBAcBKhNaGtMgFFtQrYlFEcKmqLYpnYKEMiSEBDwTx7ovOXzIGfWSeaJKAsQ9u/fLw5uGi5SDcB3yAyQLeDhzoN8zJgxgqExm81CujzEWRiYit8lI+GMQSBIuf3224XXCcHghg0bBOND10gCF9pEfPXVV6JdZBDITDz77LPCPoJ1klGQAMGPk/oc+LQECOfAIMou1IoEJEDwo5j9DRDYdI3SilB1HnJLAgQICFSb0MqYKBgEBeywQYms4lKQQE+GqlQMNNSkPt8RPZI3dd7GWXhTLwsQyBLQE4HqBno8cLOldwgPa970Se9fccUVwh6A9gsECbQB4UFOVQa/XZ2KITY2VrSFAIB2DQ4XU4IDo9EIAhSqMGgfIgGCHyfvOfxpCRDO4cGVXfOpBCRA8Kk4y3/M3wCB4KCpPg3RunTkWYKQWhyKZvoUwSCgjMmixabBzrz2sNsVVQKEskaKZXtARqAiQKAq4qGHHsJFF10kbBZoH0AA8PXXXwuVAtUJjF1Ag8e33npL2Af06NFDHPhLly4VrADjKVTFILC+wYMHC9sEPkcAQFDB0rt3bzz22GPi7zSGZEwLGh9WZBCoYvjf//6HQYMGYd68eULFQINKaYPgx4newD4tAUIDGzDZ3DqTgNcAgYuN3gGeLDpXe82Dg8aD/FPaIJQaKcab4hCry0BL4ykoFVbQNsFqV0GtYCyC8v4MBAi78trDVgEg8CAnlU+AQJqeNhsVAQK9OmgzQHbh+eefFzd3qheoNqCOn+6FZAyoouDBzBs/b/hkGfgO4yjQq4CMBOMoHDlyRDAIHEvWSfbBUTjG/DZVFGQ1aG/gcGuMjIwUtgb0JKHa4ZdffhFAwgEQ6G3iMDy95557RHwHggjGWaAKpD4G+XJ1/svnfCsBT/Yq6ebo2zGQX2sYEvAaIPAQmPXNrDP6Zn90mxbxN918k3BpcxUgUE/NRe1wtfNHu2r6Jm+/PIR5yNIdkBuTt+meCQSS6MVgikOULguR2ppTcJfYVDhmaiJUDg4VAw94Ro688MILRXIqRip02Aw4+kX58XC/8847Bd3/448/Cs8CuhjSPoH2ADQ+pNsjD3d6PPz111+gmmDChAkipoIj9wXdHGlIyBv+3XffLcZm1qxZom5HoQqBwZv4Pm0Kfv311zOhnclUEDicd9554rAnG0EQwO9wrGko6fA0YfyF66+/XswXtvOTTz6RAKGmydqIfi8BQiMabNlVryTgNUDgrXPap9P8DhDuvudu4ePuKkCgMRxvpzyg6rI88MADIhS0rwAC+5JWFIGjhc1gszN8cc29E3yCXYFgdSE6BR2FSlGaT4GqAf5Qps5yLPAAdhgZ8hmHPQHfcUROdPze8X+Odwjs+HeyCnyXz1f8XsXNumzY57KRGR3tdYwnf+eIpOhwU3VIgs8QsPCH7JYjrXfNkpJPNAYJSIDQGEZZ9tEXEjhnAQIj9x3Ytwc2e91lDOQBxhvzgAGDMHjI+T5hEDjoxTYt0osjUGjVCtWCK0WjsCJcm40gdb5gEmSREmisEpAAobGOvOy3uxLwGiBQxTB71myPExq50mBasN94041uqRh+nDMLQ5rmIzo6BlDULYsQ3ekCtOo10mcAQRACLgKDsvKVwMCV2SafOdclIAHCuT7Csn++koDXAMHh7+7JonO1E6SlHXS1qyqGObNn4oFRcYjR58JeXH3OBFfbARBo8MZ+NimRK+9aW1wGQ8exPgUIrtQrn5ESkBKoLAFP9ipppChnUmOUgNcAobaF5hZAGNMMkQXrUZzyl/fNVGihCRsAKFWwZKwH7K6ngFb2egmBA+6VAMH7UZBfkBKQEpASkBKoJQl4DRCIxh25DfzVZqJ3Rthzx81RMAgECPnrUZy6wuumqUP7IHj051BAgZyl96Akm+55rjEJyl4vI3DAfRIgeD0K8gNSAlICUgJSArWSvLS5AAAgAElEQVQlAa8BQl5eHr6d/a3fbRAm3zhZuCy6zSD4AiAodDD2eAiBQ58V42LeNgt5G56BvaRmF0M+LwFCbU3nc6ced2lwSYGfO2Mve9IwJODuGmWvGto69Rog1Fc3R98xCCqoAjshZMwMaJr0ETYItrxTyFn0HxSn/gOgZi8JCRAaxoKvT610d/NpaBtPfZK1bIuUgCcScHeNSoDgiZRdeIcGiu7GQfAcICih0MZApYuGQhMIhT4cutYXw9DrJijUhtLW2q0w7fkJRft/hs2cCbslD7aidNiKUphQulKPJEBwYZDlI+Uk4O7mIwGCnEBSArUrAXfXaKMECHRz/Hrm135XMUy5ZYpbbo6eAgSloTUCBz4FTZN+UOrDoNAFQ6HWAUpN+dlnK4HdWgR7Ub4ACdaMw8hb/SysBQcrsQoSINTuwj0XanN385EA4VwYddmHhiQBd9doowQItAnwd6Q6bn4Mw8sIef62QVAZ2iFo5PvQtRkBKFSuzVe7DZbkXchZ8h9Y8/ZUyoUgAYJrYpRPnZWAu5uPBAhy9kgJ1K4E3F2jjRIg1O6QwO8AAQoNNJHnIXDIVGibDwKU6uq7aLehJGUP8ldPRVHycsBW2f1RAoTaniUNvz53Nx8JEBr+mMseNCwJuLtGGyRAUKs1dsa1r6qzjPPPxDzMI8CkOkybO2PGDAwfPhyHDx8W6X75nrP3fTXc3PwYtrj23BzVUEcOQtD5BAlDROyDKgvBQdJ25K15AZaUv2G3mat8TAIEX82ExvMddzcfCRAaz9yQPa0fEnB3jTZIgGA0hthtNitKSophtZaUAwquAASChN/m/yZiIfirMAbCuPHjEBAQ4H8GwdEJMgnRwxE6/lso9aFV44OiXOSueALmI98CNuf9lwDBXzPj3P2uu5uPBAjn7lyQPaufEnB3jTZIgBAQEFqa7M9uhwMolGb2s4tMgTUxCOesm6NCDV3cGIRc8ZUwVKyq2C0m5C5/FOaDX1WyOyj7vAQI9XOB1+dWubv5SIBQn0dTtu1clIC7a7RBAwTHAJaqDCyCUSBgaLQAQamDsct9CBz23Fn3RmZBJJxy5Fi2WZG/9nUUbnsTdnvV6gXKVQKEc3F78G+f3N18JEDw73jIr0sJVJSAu2v0nAAIDiEUF5sESKgJINDN8csvvoTZ7PyA9HZqMQ7CrbfdWitujmc0DEojgoa8BUOvKeK/rPlJKD6xCrBaoG05HKrgJsKA0bRrDvJWPwl7SZrTbkqA4O0MaHzvu7v5SIDQ+OaI7HHdSsDdNXpOAQSLxQyLpahGgEC3Q4Zb9kRYrg4vNz+GWa4NN8czbVIZEXz+e9C1vxSWk+tRsOUzlGRsEr9WBneAsdfdMLS7CEVHVwiAYLMwSFLVRQIEV0daPleWyXNHGhIguCMt+ayUgPcS8OTMa2jrVOGwQagoLlcBgvdidu8L/o6DcKY1CoZY7giVMRYlWfths6QBdkeURCUUmnCoQ7vBXpyJkty9gJ12GxIguDea8mkpASkBKQEpgfoqAQkQnI4M01QoAbvt9J80Piibd8Hx+4r/X/mD/mAQWGuJVYUSuxIKhQ2K09XybyrYoVZZofTBrLPZlCixK4TpxZnbbbUmmc4rZRsd7fRB0+QnpASkBKqRQM1ZYpxcaKRUpQROS0AChEpTQQGFOhTq0K5QhbSFJWUzNNG9YS/KhSV1E2yWVJHmWamNha7VFbCkbkZJ9tZqJ5SvAYLNrkBKYQAyioJgsmmhdCABOw9gBdQKC8I0eYg1FkCjci0ldVUdyC/WINkUiHxrIHssF42UgJSAlICUQCOSgMJoDLaX6kXK3+0arYpBoYa+5UQYet0GdUw32PNToAiIhq0gBea9v6D4yGIoAmOgMsYgYNCjMB/6HcUJqwCLCZaMf2G3FVSaPr4GCNlFOhzOa4JiZZDTO7nCZkKUOh0tgnKg9QAkFFi0OJIdjHxlDKCoIZpkI1owsqtSAlICUgKNRQIKvT5QAATHjwMoNFqAAAWUmmjoO01G4PnPwGbOgsoYBfPBRchf/TQUulCoIrrD0P4K6DqMgTU7HoWbp8Oam4Di5OWwW/P8DhCSCwJwzNwKdkWFBFLlarZDaTMhRpOGZoG5bjEJecVanMgPR54tFHalTioGGstuIPspJSAlICVQRgICIDj+XRYo0IOhohcDvRXee+89DB48GLt27kJuXm6tC5NGinv27EHiyURs3rIZqamp6Nixo0jm9O+//wqPinXr1sHTbI5QaKGJPh/69lfC0GMy7JZ8KHVhKD65DqYtM1CcvBqq8G4IGjoV6pjuIpujaee3KNz5IWzm5EqZHCkgXzMISYUBOG6qCSCw5lKQEKlOQ/OgXGiV1mqMABQixkOBRYNj+RHIs0c0HuaA5iRiJntnIWF3xMmo9VUhK5QSkBKQEvC9BMoBhLKfdwRLKhsHgTEPnvjvE+jZsydWrlyJtHTnvv++b+rpL9oBs8kMc5EZO3fuRHpGuk8BgkIVDEPHW2AccD+UhjAoBL1uha2kCEX75qM4YQ0CBtwLhSESyoAI2ItKXTyLDixAwabXYSsmSChr0ud7gJBcGIhjppY1MAiOESBIKEKwKgOhGhOUBA3K8u3jk1abEhabElmWQBQiHPZzXK1ArZpKqYRapYBeo4JeSxZNCWUpTnK5nDEOtdlRXGJDYbEVFqsdNv7Y3fmSy1XKB6UEpASkBGpFAk4BQmluBku5OAjZ2dkYPXo0mjdrjn379iEvvzKd7vdW2wGGguZPwskEkTDKlwyCQhOBgB73Q9fhcii0wVAFRsFWmAmbORuW5B0oSdsFVVg7cdfUdxyH4qTNKEndA6hUMO38EtbCQ/UMIDiAlRUKWAC7FUp6Z5QpvPkS5Cigho1qiwq/9/uY1mIFKqUCAXo1AgwqGNSAUmFDUYkVxcUlIs8HWQR3j3VhwaMAtBo1dFr6kChRXKJAQZENeSbOVU/tyWtRMLIqKQEpASmBChJwCyBkZGSIYEUsngSJ8LX02Qa2x5cAAQoVNGEDoGs/AQpjJJRqA+xWM+yWQhTHr0bxyd9htxVDaWiCwEHPo+jQfBSdXFTaNTs9BiofBr5WMbjHIPha6g33ezy8m0XoRTyL9Kx8FBYxpHhpJtPShCTe9a00ArcCapUSOp0aESEBMBr0OJlRhAITE6F59335tpSAlICUQG1KwGWAkJmZicLCwtpsm0t10W4iKioKarXaNzYIYo/XQ6EyiogCjiL2dpvptJcC/QlVUKrCxb/tturlIgGCS0Ppt4eUSgUigrQINgCZuQXIyTPBZrMjyKBGx+YhCA6ksad39genESLMxTYcOZmD1OwiQSsEGNSIiQiGyaJCSk4RrCV1jBIUEGoVo16NQKMKWq0KKgVZkzpul99Gv+F8mDPQarfDUmJHfoEVBSYLrFayew2nD7Kl55YEXAIILVq0qPe9tlqtvgMIPu6tBAg+Fqgbn+Otvkm4HlpVCRJScmCxlEa85MF9w0XtMOHS8xAXE0lTUje+6vzR/IJ8rPhnM6b9vANJWaX5SchyRYUHIiQwCMdSC1BSRyBBrVYiKkSLVs2NCIpQICDaDo3BjjI42CcykB/xXAKMy2Y1KVCQrkBBJnAioRDJGUWwNGg1lUQ4ns+Iun2zWoBAOwTezoODq053XLdNL187aeKTJ0+iuLjYOy8GP3RKAgQ/CNWFT5I5iA7VQmkvRkp6LkqsZ9U/XVuF4tWHLkeXTm2gUp1lilz4bLWPcB6mpKThjekLsHBdwhlDRcFihFLlEIBTWUW1ChIUSgXCQ7Ro00qPmFYqGCJtUJE0obGqp8TJ6T2fsMpuK1X1lS2l8UVPP+RpHZ4OxuluKU7rjWh8Wr5tpXyJ+HWdto0k09kGlLbpdNtsChG93ZylRNpxG44dNSM1q0gwXw2n2AFrEex22j+x3b4B4Q2n/w2/pTUChIbYRa/cHP3QYQkQ/CBUFz4ZFaJDsN6G40lZwtagbOnfKQIfPjcJMdFRLnzJvUdMZjPe+GQuvv3zSLkNXaGwIyYiBAaDEQlpZlhrYbPn+RMbqUfXHkaEtbFBpffugOGhq4UKYYZARASEIDw4lAZJCDRQJVd62FltNpgsZqRmZyKrMA9ZpjxYCBf8fBizbXqlBmH6QEQEhSAiMFQctwE6w5kBtNltKDAXIjk7A9mmAmSa82Dl4eX3tikQoNIgVB+I6OAwBAcECXkZtIwzUgoMaCSbaypASlY6cswFyCzOB02H7RYFcuNVOLDDjBMphULt0BCK3WoSzVQotaVIzM8ybggyaWhtdAoQOFnt5LtcLqWW8PR8qGud2bp1az2Pg+Byf11/UAIE12Xlqyd1WiWahWuRkJSBotNqhfIAIfI0QKB6wbfFZDLjjU/n4ds/D1e68dGAsUVsGLLNSmTlF3ttGFldy8kcNI3So2tvA0Ja2qDUen6w8PDVKJTo1qQtBnfsiQ5xrRBkDDhzA3aAA0d7Sg88O3IL83Ag8ThW79+K/cnxKFG6s6e4Ni5sm0GlQe8WHTGwfXe0jW0Jo05XQ9tsyMzLxt6TR7F631YcyTgFmx8uuGxbkMaAgW26oW/bzmgd0xxatbratlltVqRkZ2B3/GGs2b8VCdlpsNoVKDilwt4tRYg/VVgr4NI16Tt7yg4UZQPakHPaK8o7GdX/t50CBE+abrXSpau4zj0czgCE0c0Qnv8vilNXetIdn72j6v0yggbcJ+Sya9cuoQYRyFqhENRs586dQRuKe+65B4mJieVox6oaIb0Yqh8a0vktow0ikFd6VuXQ13y7f6e6AQisW6/Xoml0OOLTqWrw/YHpkE5oiAZ9+wYiooMdSo3n4IDfC9YYMKJTf4zpe345tsCVRcJ5n5mfg4Wb/sbqg9tgqibzqSvfK/sML6XhuiBc2msIhnXtB4NOf4bJcOVbbFtyVhrmrv0TW08eEEyHrwpBU4whBBMGjET/9t2g0/Am7Xoh23Ei9RS+/WcRDqSfFKAg95gaWzcWIDXTXOcXsep7YoO9KBMKXUQd6HFcl7F8snoJ+AwgcKGVxk5wnva4tgbDARCmDA5Ewp6/kJl6sLaqrrKezpc8i16XPyQBQi2NQqBBjWYRahyOT4elgmrB0YS6BAgEhi1iQ2Eq0SA9lzpa3wtGo1aid/cgtOijgNroXQV6uxoT+l+Ii3sNdvuQK9uzwiITlmxdgwXbVsGi8M1BHKIxYtJ5l2BQx57QqKsLPe5cxty78kwFmLv2D/x1cAvsjJblbbEDcQFhmDz0MnRv2R5qlWf5TNi29NxsfPP3b9iWcBAlFiVO7VRg6/ZcmIo8T8Tmbfdqft8Ge3E2FNowCRBqFla9fcJnAIGqBYul9GZc14UA4YfvZkGTtgHJp07AUlK3oOWKm/6LCVMeOecBAg+++hAfIy5cD7MpD1m5hU4P37oECFwfAQYdmsVF4Igf6GLhuRGlR+/BRgQ2qy68ds0rVWVXYFCrrrhlxHgY9Wd1+TW/WfUT2fl5+GL5T9ieeAS2KiJ6uvNdjV2J0V0HYcLgi70CLo46kzLT8MmSH3AsJ9lrewmdXYVrB12Mi3oOhtoHRrBHkxPw6R9zkVSQCVOGCpv/NiEx2eQXcOnOGDh/tnYAQn3Zc3wjs+q/wsivLLTxcVbInvI5GmRX3IuFrNwMB+8TgEBbBeZtKI1EV/eFACE5ORmJJ+PrRZt69uyNAQMH1hpA4ESICDaKgD2p2fm1YvnMA69N0wgkZZDWz6+zScDF0SxSi6SUqm0PHA2ra4CgUinRskkEknNsMJldB7Dibqs8DcScEAP8ds/OQWh7nhIqvRdr0g7EBoTi0bE3oUlEtFPq3mq1gXYXVJNpNBoYDGf1/xUnAjetI8kJeGvhN8izlrqBelTsQNuwWDx42Y2IpKGkk8I2FRaaxT6g1WqFeqes50DZ1/jMjuMH8PGfP8Jkt3jULL6ksCvQM6417rzkGoQYmXG16kJVo9lcJKz79XodtFrnLEOJ1Yp/dm/C7HW/i1gbidsU2LA1xyUVlYgVE2JEcJBR7AWJaTkoKva8f64JpmqAEGTUIUCvdWqwyBDlWQUmWCzVsyNqtQpRoUaEBwcgJSNXBD3TaTTINZlB07lgo07YHpmKyvdToSwNp27jAepaR2p8KtCoQ6Bei/TcwvLG0ArAqNMiKECPtKy8yvswkTzpQyZLPK1yFl4sVRgva9QqjBzYQTy7/N/95TyyyjawZ8emGNa3PX5atg2n0nLO/Ir7Yqsm4WAk2bSsfGQXUE41S8AnAKE0bwONE2uusEZp++ABAgRuDBaLvxeBa42NiYlB69ataw0g8LB+/u4xaN0kHHf+73tk5ZdaE/uz9OrYFPdPHo5flm3H4lV7/FlVtd/WapRoGqbG8VPp1QKjugYI3BuiI4JgseuQlefaPOVG36lVDAb1bIUFf+9CRnbV9hVGgxrnDQ5CZEc7FCov1qQduLB9H9wyYpxTipzgYOuOvfhz+XrYbFYEBQZg3NgL0bpVU6fjZC4uwoxlP2H9ib0e39Rp/HdV3wsxvv+ISi6Wjoq5B6xbvx0r/t4EXr4iI8Iw/vIL0SQu2mnb8k2FeH/RbOxNi/fY6l6rUOHWoeNwfpc+TsFIQYEJC5eswoGDx8S+0LN7B4waORgBAc5ZmuSsdLyzaBYSczOQfUSDdWtykJtf89zRadW4+uLeGDusK/r3aIWbn/gGa3ceLz2c/FYqAwTebi89vysuOb8zNGo1WjUNh1KhQFioEbsOJMJUVIKMzHx8s2ADjpxMd9oyvVaNay7pjbsnDcfxk+l4+8vliIsJwZQrB2H696uQW1iE+28Yjp/+2IqF/+wW34kMCUD/bi3RLDZUXJyS0/Ow82Aijp7MEDfy6LBA9O/eEgadVhzWDsmwfVDYsXXvSdGmsmecAF5hgXjghmFoHhuGpz9ciMSU7DPtZn+vHdVH7Ivj7puOtDLrVaNRYczgzggw6gTw5r+NRi1S0/OweNVumItLBLBo15xBAJXQaVS4efwg6HVqTP9hDYpLrAKMnDjtodW9fRwCDTqMGtoFF/Rrjzdn/IHsXJOYwwkp2TiRlIlJl/bD9Zf1Q0ZWAV6b8Sd2HjpV4wXaa4BQantQJA7k+lIIEFasXIk/lq+qF02aPOka3DR5kt8BAiesUa9BbEQwnr17NOIiQzDp8ZnIMxUh2KCDxWpDoEErDk4H2uXmERKgBxGq2VKCvMIigYZzTUUI0mlRZLVyfYCTnd+pCLu5mIx6LcJDjAgLMiIhNVtQ+yKKoF4DnUYNrVol0DxzFRSYi5FvKha5C4KNenGb4BzKLTSL37EPQQadaCdLXmEx8grNUKqUCAk0wKhVi1tBNqMhVrHBGfQqxAQpcDwxo9obQl0DBPYtNNgInS4AqbmVvRlUahXCAvTg+NCQkSCP4zfl8v6Y+sBYXHHXdOw6nFjlHh8arMEFo4JgjPNuTSptCtw45FJc0muw03WUlZ2L9z6ajWZNY9CxQyvMmbsE/fp0wc03jBPj7az8sW0tvl33O6weeg7oFWrce/E16Nu2q9M60jKy8O6Hs9G5Y2vERodj3vzluGj4QEwYf5E4oKoqNAz8YdUSLNqztjTBhrvFDkQYgvDwmBvQJrZ51XXYbNi4eTfmzP0d1109Brv2HsKOHQdw561Xo0f3Dk5BRZGlGNP/mIcN8XthTldj6z+FSKhCzUC5hwTqxbrjQZKVZxK35mF92+Hr12/CDY/NxD9bjpzOvwJxsAQH6IW7J58tKrKI/SA4QCduqrwFc+5l5dHF0gZ6x/CdIO4lYo0ylDjncFnAUTWDwMtLqzi6eeoxedxAIWIC3mc/WISTSZnIKTDjVFquU9shsmOjzuuE1x4Zh+8XbcJ3izfjVHoOWsaEY87bU5CVa0J2biFaNo3ATU98Iw71Di2j8dIDY0WwqRZNwrH/SBLMRRZ0aBWDp977DdsPJKJJdAjGX9gdIUEG0Y3SrtjRpV0cBvVqjWfeXYB5y7ef6SNl0LFFFJ6+azQCDFq88slS7Dh8SlD4oYEGse/xtn7FiB6494ZhuPbhL5CRXSj2Qa5lAo9eHZqKNULmikDj+XvH4J/NhzH1499RaC5Gj/ZNcO/1FyA0xCh+37xJOE4kZgqGlvVk55gwZ/EmFJqK8fqj43EikaypFSqVAgWFper+7h2aID4pC/e/Mhf0ju3cKhrP33spdFoN7n3xBwEcnBUFbPAaINQ39oCdJUCYOWsOdN0mIjwqTtwe6rIMam3ABV0i/AoQeLD26dwMt04YjNbNItC+VTROnMrEtY98iS5t4/DkbaOQmpmHLm1jBcJ+6NV5SM8uwB1XD8HAnq0QGmQUVN1Hs/7GPTdcgJm//Isp4wdh39EUZOUWwGjQ4p1vVqKouDwdzgU7on8H3Hb1YLRoGo7XPvtD3G71Wg1um3Aehg/qiNjIYCSn5SA2KhgbdhzDy5/9gfP7tME1o/uK4EFclD8t3Yrp89aif9cWuPWqwYiJDBKLdt7SbXhz5nKMHNABd107FMFBeuTkFuLl6UuxaW98ecCiAEIDNAjUliAh+SySr2rs6wNACA7UIzAwGMlZ5T1/+P83XzEQwwe0F7cIg16LFz9ZLG7K113WF+NG9sRHs/7C8VOZWLXlMI4klLltKYCoMB2GjAqAPso7gGBQqPHgmBvQo2UHJwedHbt2H8T0L+fh6vEX4+SpFPy7fgeiosPx+INTEBwc4HTZ/bt/O6av/NkzY0U7EKo14olxU9Ayqmqmgpvupi178PW3v+GWG8djy7a92L5zP5o3i8VD905GYKDRadsWbvwLP2xe7hm7YQfahMbiobHOVR9FRcWYOXs+jp84hesnjsFP85fhZGIKLhs9FOPGjoDGCbDiTffrFb9i+aEtsOarsHtVCQ4cYzbZs10hiL5j4hAMG9BeHML5hUV4+r3fxG3xgj5t8d3bt5QDCJ1ax+CRm0eic9sYcWgtX7cfH373D9o2i8D/HhiLzOwCtIwLF+v+5c+WYtWWIxg5oD1uuGIAYsKDER0RiO8XbcbH36+CuZzaomqAEB0eiG/fnCICl3VsHSNus53bxWHJqj2ICgvCjgMn8dZXy8QNuqrCiKQ/vX870jLzcPvUOcjKKQ1zT5XD5Mv64c3/Ximo86ffXYBZCzeKi81jN1+EAT1b4t2vluPtJyZg1m8bMH/FTrzzxARxaD/yxs/icmTUaYSaNDOnUFxAuG+9/MBY5OSb8fzHi4WagC6q3LNGD+mMG8cPhFGvw93/m4NtBwjWS8HB7RMHo0u7JgIgtGkWifatorBywyEBvPYcOoXP5q1FboG5FIDa7YI9uHPiENx4xUA89sYvWL39iNjXyBzwAmXQaQRQGNKnLeYu2SLAGEHB5r0JSM7IRfe2cZh676WY+ct6sW8y8BvrPpWWjUE92whV5k1Pfi3UMDwnLhrYAe89fbV4/r1ZK50yrSpYvQMItD0oLqa7jT+pKvePdgdAiBt6B3blh2B3qvfGk0TgOlVpLLAiqwIlbvT5vgF63D7UvwCBt9HP/ncdWjeLxONv/IJbrjpPMAk3PvkNhvZuixmvTMa6bUeweWc8BvVpgxc+XoQL+rXFndddgIdenifotRGDOuKFjxfj5YfHYeveBFw6rIu4hf+z4RAOx6fiza+WVwIIHB0eYKMHd8Yrj1yB92auwIyf1wkG4NWHx2H8xT2xfU8C+vdsjS27jiMuOhj/fWs+Pn7+WqzadBhf/bQOLz90BfYeTsLH3/2DWW/cLG7/039YjfefmYid+0/i2fcX4qvXboRWo8Jn36/BW09MwHcLNuK5jxeX06VyvTE4kkFTguOJzpEx21wfAAKBUXhoKOJTy7MhE0f1wltPXCVAwK6Dp/DJ1Ovw7HsLsOtgorh13Xb1EPz3rV9w4GgKDsSnITPnrKqBG0CTSD0GjDRA5wQg6DU6hBmDQL12jjlfGDUpoISJa7kM7xIADR65/CZ0btbG6U149bqtmPfrMgwZ1Avbd+xHTHQkklPS8NTjtyEs1HkEVgEQVvwESwVDRYNWj1BDIIpLSpBnzodapRH7CwMvnSm8pasD8ORVt6JpREyVbWPf/lyxDkv+XIsRwwZg/YYdiIoMR0ZmNp587FaEBAc63VgWbPwLP274E3b12ZsFwVmwLgAGjVbIKd9SBJ1aLdppKeO5xba2C4nDo+NvRmhA1f03mYrw3sezRb8CAwNQUFCItLRMdOvWAZOvvRQ6XdXukAQIXy77GX8d3ApbsQaH1tqw40DOmf2XB80t4wbiiTsuwWOv/4K2LSJxzZi+eOzNn7Fm29FKAIG34JfuvRQ3jR+E+16eixCjHi8+fAWmfrhQUN2z3roZO/cnYvqcVXjryQn4dsFGfMo1+uYUFBdb8fK0JXj/6YlYs/Uwnv1okTi0zhYnACEsEPM/uROf/7AGV13SGz8s3oy7rrsA7329HCPO6yRu2M9+sLCS7YDju/26tsDsN6fg+4Wb8OJnS8pdENq3iMLc928Vt/drHvoSu48kISYsENOmXo8FK3YiPjlTyOb9b1Zi+foDeP3hcWjZNBx3vfgD0jPzERZkwKsPXYGgAAM+mLUS/7l6MEKDDPjvO/NxMiVbsKS3XnkeLruwmzhUc/LMMJmLcNf/fhDMBwttHEID9dCLzK5q3DRugNhbuecRdBCIZOczp0/pmcn12qN9HN554mrsOngSz364qJSNKVPIUHw29To0jwvHviPJ4jIXGRGA5z5YiA07T6B3p2YCIPy5Zi8G9GiNL+auwSUXdEXH1rGIT8pAi7izAIGfbRIVIsbg4NEU3PG/7wVbUXWxewcQ6iN7wI6eAQgX3IF1GcFYnui5Dp7AoIVBhau6BqF3U9J2CiRkWbBgbz7WJZthcQEbvXa+EQ+OiPIrg9C+eZS4HWzceRwvTV+CVx68XOjFJj/xDc7v3RYfPncNrn1wBvYcTRHUYLHVhtmv3/LI1iQAACAASURBVCSowzue+07oty4b1g1Pv/sb7p08DB3bxMJsLkZEaCBOpebgw9kr8dtfu5waxwzr1w4fPXetONQcAGHqPZeiXcsoHDqRhgE9WmHjjmMYObiTAAWP3TYKz3+wAH9vPIQvXp4sDruV6w+Idr7w0WIsW38Av354O3YfTsLrn/+BP768H6kZeTh0PBXR4UFYsnoPPvp+lUDlZ8o5wCBQP/rCfZfhlqsG44q7p4FH93fv3IJn3v0N8//ahRvH9scLD47F2DunVa1DpG1DmA6DnTAItKgf3rEvujZtA71Gi5ScTOEBcDz9FJbv3VjOQpoMwkNjbkD3ahiELVv34ItvfoFWq0Hf3l2Qk5OH1LQsPP7wFISGODfQ+3f/jtMMwlmWg+24uOtAtI1uBqNGi8SsNAQbArA94SDWHtp59iJiB8IEg3ALWkQ1qXJvIxW+9t9t+PaHRTAY9Bg8qBfi40+hoNCERx+8WdhKOCsLN/6NHzYvK8cgxAZHYHy/4VArVCL6YXJOhojQuGTHWpzITC4HXtqSQbj8RkQEVW08yXX12VfzcOx4opDbJRcNxq8LVuK8AT0wccIo8X9VFQeDsOLgFpQUqLBnVQn2l2EQaCw3580pCAjQ4cbHvxb09n+uGuwUIBh0asx44Qb069ESF035QOjpZ75xE5b8swdrthzBjJdvwD1Tf8DOw6fw5xf3Y8HKnYLWn/fhbXjt8z/x+9+7Me+D28XFwx2AsPize3D8ZAYKCovEYU2aXqlSiQN4+/4EPPO+c4AwvF97fDL1WsyYuxbvz/7rjJioErnhsn549ZFxgoF5+ZPfMX3uGnHAf/7CJHzz679CXTCwZ2vc89KPgln59LlrBcNw2/NzkFdgPn1YN8GTt49C13ZxOPb/zNz/Pv1dsANEItxjL7ugq2AneYEia9qqSQTufumHUkagQomNCMI7T1wl9ra3Zi6vBHqoNh3cozWeuvMSRIcFIC2rAG99uUyAubLu2WR5vnplMr77bSNmL9wkLnaTLx+Id75Zji17EkoBwj2X4s91+zBiUCf8tnw7BvVqA7I1J05lCbWKg0FgE6kKXjj9LgGKbnpqNnKrsVHzWMVQH20PHOPjS4DQKkCNl0dFYXzPIAToSm8UBH/bE8x45NdkrEupGSTUBkDo0joGP753K1ZvPiIWMg/axORsXPPIlxjSuy0+eOZqXPyfj3DwRKroQ3iwEYs+uxeZ2fl4ZdoSvPTg5cKA5+YnZ+H6sf1xy4RB+OmPbRjat51YROPv+Qx7jiY7ZYsIED5+7lp88t0/AiAYtGo8d/cYNIkJxYmTGejRsSl2HTqF0UO7YM7CzXj4PyPx0seLxaJ57dFxWLhil9iU3nziSvzvw8Ui4+KHz03E0lV7MfWjxfj2rSnYfTAJb3+1rDSUr9mClOz8Spa4zFIYHQQcS8xwegDwF/WBQajKBkGtUeOtR8bh+sv7Y8p/v8HFpDLHDRAqobl/bsdVI3sKBoUHwJZ9CSi2WFFcIVKksEG4JAjG2MoqBpVShSYhUTAVmWBTAO1jmwsQsvvkEeQVlc9KqrYpcNP5l+Ginuc5leWppFS8+tYX4Hfvum0iZs1ZiMjIMNxz+zXiYHZWlm1fh1lrF5ezQdCo1IgLiUKBuUDcxDrEthAsx57EIygoLs8gGJRq3DfqWvRu06XKKrg/xSck4fW3v4LRqMcd/7kKn331Mzq0b4kpk8dB7+SWTgaFNggLd68pZ4MQpDMgOjgSqbkZCAsIRruY5kjITMGxtESU2MrI2Q5E0gbh0sloHdOsyraVlJTgj2Xr8MuCFRjYvzt6dOsg5DbpmjECyFTMa+H4SHGJBZ/9MQ//ntiDotM2CPFlbBCoUlg4/R5YS6x4/M1f8OQdowQwv/nJb4RqwKFioG7+n81HxLp++/ErMW5kD0x69Cth4/Pp1Ovw/jd/4cDxFAEQbnjkK2EIt2zmA1j89y7MX7YTc969Ba9O/wN5BSa8+fgEzF26FU+8O99lBoEAYeWGA/jm1/U4GJ+O8CCDUDM6jPCe+3CRUwahXctoLJp2F5as2ovH3vpF2ESwtG4age/f+Q+OxKcJZqdT21hMfOgLJCRn4rm7xmBw7zaCHfvku7/x18bDGDu8u9jj3v16pVCJOr5D2r91bJjYP80mC+55+QdxcJe9hJBko93VU7eNEiqEqgACvTXuvm4oxo3oicfe+Bn/7j5RzkaDrMCAri3w1J2jkZKRh7e+WCbY1rHDu+G5DxZhxcaDwgiRwOfBG4bjyot74o6pc7DvWAquuaQPLrugG16dsRQHjqWeBQhr9+LyET0Rn5gh1Albd8ejS/s4tG0ehZue+kb8H0vHVtFnzoqH3/i5Uhj6spPWY4BQX9kDds5XACFUrcQTQ8Jx34XhCDwNDhzCK7HZsemYCff8koztmdWrMGoDIISHBODd/04QCDkjOx+0DUhOzcHtz8/BwB6tBLK+6v7Pcfi0dTAtge+7/gLcOnEIElOzoVIoERSox11Tvxf6y3snXSBo7fEX9xKU1MSHv0BSeq7TDX9I7zb49PnrcDQhHX+s2Ysfl2zBA5OHIy46BAmnMoVObt/RZIw4rwNe/mQJXn1kvLANIYNBOm73oVN484tleOfJq8RNgjrPru3j8NuKXXjglbm48fL+uP2a87F6yxFh9btmy2H8smJHJWOmBuXFEB4ECyp4MSgUuHJkD7z1+JVISs0pTUsdoMfnP67Gl7+uB28THz5zDTIy85Ccnouf/tyOvzcfKjcuwothSBAiO9iYlbxSKes7zsNIpBmuykXZDozs0A83X3iFU1/+YosFi5euxoZNu9C8aSyOn0jE1VdehAH9ujs1tjNbivDV8l+x9tiuSnr+sm0Tft/M91NFyHcazk7sNxJX9Bvu9EClrp/6/Z27D6Fpk2gkJaVh0rWXoluXds69C8yF+HDxd9iVcrycFwPnHFVYNIzl39k2tqsq9Sq9GG4fNh6DO/V2Wk9qWiZmzpov3uc36Rp643VjBbhyVhh++d1Fs5GQk4aco/RiyEVO3tm9hyo42q48dPMIsaZpABcWYsDjb/wqKPXBPVvjy1cnY/3241i16RDmLNmMPp2b4+UHLhcGwnqdRtgGPPP+AnHgkhEku5iQnIVfP74TS1ftwbQfVmPGSzcIeyIyAG1bRGHOos14niqGclR11SqGmPAgrPj6AWzeHY8j8We9AsicDejREgePp+Kp9xY4BQg8WN94ZDz6dG2O+1+ai+0HEwXAvW/SMEwc0xtPvPMbNCoF3vrvBPy6bAfenrlc3PKH9m0rDmLemidd3l/YEXwzfz3+2nSoktqUthh0KSSz8cGsvwRzV9EamADh8VsuEnK6/9W5wlDTUagCePyWEcJA8LuFmzH/r53l6uCaI9CnCmPByh1iDafnFIhL2/2ThgkbMoIkqi1oV0FWYOYv67B9f6I43K8e3UfYOjzw+k/IyMoXAOGZu0bjva9XCCNTMhxU8XZrH4frL+svgCC92XgZoy3ZHVcNFvv+M+8tEF4e1ZkIeAQQ6lvcg4oLylcAoZ1Rhd9ubYHOcfTrrrxsC4pseGBeEr7ak1ftbbU2AAKbx0nfumkkcvIKhWENBz4tpwB6jQbhwXqkZOafVRGc9tFt3zxS3JR42NCwhROV/sS0gubfA3RaYSxDF53q4lxQ3xYVGigmY3FxiYi/QC8FtUohQABRfVGJFaQ103MK0SQiCDGRwULXWVRSIsLI0lq/fcsoYZhDkDD1/rFY9PdOPPfRInFAxUUEIyYiSCzy1JyC0kVZwRbEEQfhVEpGpZt12UGqawaB9CKNv1Jy7ZXiIHBjb900XMiBmxr1ldzAcwqLhHxjw4OEMRUXPBmhspsT+6hSK9GrcxDaMA6Czrs4CE0Cw/DY5VMQG+Y8ZwXVPDx8M7Ny0KRJlHAnpNFYVYVz8kRaEl6f/yVyvYyD0CGiCR647EaEBzq3dWCcgcTENOTm5aNZs2iEh4UK8FxVoQfD3vgjeG/Jd17HQejTtB3uGDURQQbnqozsnDzBcjDKIo0nAwMNTgEFvcTW7NuGmWsWwlxkxantCqxnHARL+fHl3OnQPBJanUaoBjlf6FXEucI4C7GhAYKd4b+5N3DfiA4LQsu4MLE3HE1MR1aeWbjVRYWW0t4lNpvQ5RcW053djm5tY4W3FFUab/53Ar6Yt1YYNpZnsqoGCLzIvPHIFfj5j+3Ye/SsakajUmL00K7QaJSY9uOaKm2dxJgpgKaRIXjvqasQGxmCN7/4U7AjjBzK23Z6Nj2oIGIk0GshI4fB0s7qgelWyBgxBaYiZOYxFkDV64OGfuxzvqmoSvUB5/fg7q3EgcvbflmVANvRuXWMsDk4mZYjYi6UKwoIew8aH1aMnWDQa8S+mZlXKL5x87iB+HPdfqFypTEiDVDZB7pwLl27T+yb7ZtFYsKoXpi9aCMSU0pjH7SIC8d/JpyHiBCjMMikMXOz6BBcMby7AAc01Pz0x9UVWJ8qLhN6faALWvTyL9Zn9sCXDELXYDVW3tca0UFVb3YWmx1P/JqC97dkV+tSXBsAwTFCpdGyqDJzbVgdQWPqwtC07G2Rf+/XpblYAFAoERqkF5vEK58vxf6jKWdM52qKnMYNLzZCD1NBHrLz6nMkRS2ax0XicJKT7Hwi+Z3zyJTc+EvdsSqPM8Fs0xgDep9nQEBT7yIpqqHE0LY9MXnYWJHnwFlhO/jjjB53vJdbkI+ZK3/FpvgDXkdS1NqVGNtzKK4YcCG0GudhlkvbVuqqW13hDX360h9xMDPRMw+GMh/X21WYNGQMLuw2oNp04mSIhKt9DS6Vx1MTMf2PuUjIS4c5Q4Ut/5iRkFT1/PZkTfPWLNJNV7Nv8LtdWkXjoSkXCbqeFxIaJr44bQkOxadWcIGuGiDwG2Qv6Y5X8cLBg5W/r6gyqzhmpfFAogXNHhMVhFnzN2L30SSXAv9UOwHc/KVguBQ4q54o874nUQsrVs+1RFdVi9Uq6mB9ZIlY6L7qUItwXmtUpS6tjvFj/QR53EOKrVbx7sSLewvmZdOuE1i6dq8AMDUVtxmE+mx74OiszxiEABXm39oCXcggVCFJMgj3z0vCzHrAINQ00A3h91wMpNnCQoywltgEC+FgQtxpf5BRjSZhahxOSHeqX6tLBoGLt3lMCIptWqTm+CkXg0aJvj2C0bw3oDK4BhadydgAjQgbfGH3gU7jB7gyPlQtLNv+L37etBLF8A64OOoL0wTgxqGXoV+7rp7nOwBQaDLh53//xB/7NvgsF0PToAhMGXYFOjVrLWw0PCncbxmemrkYNp3YB2uJEkm7FNiyLQ+FbkTg9KTuqt4hk8dbaWRYgAhsRA8aUuGVo/L5P9QymTKDRg2zpTRokCzVSOA0MCMQNBVbXAZTbgOE+s4eUES+AghhagWeGhohbBAMmvK0JA0VtyaYcMePSdhWD2wQzqnF4UBjHp5rRNStYo3Izs5xGm2wLgGCTqdB89gInEjzXzZHijAsVIs+/QIQ3t4OpdpDYYrQwUCYPhAXdx2EkT0HIkBvcDtjYnZBHpZuW4OV+zahwOq927FjvguK3BiKsb2HYnCnXtBrSyPTuVp4AKfmZGL++hXYcHwPzD7MNEndeNPASEwYOAK923SG1s1kUmxbQnoyfly7FLtOHYGFSaWOq7F9YyGS0us2D0NNTB4gszm6Ogfr83NuAYT6bnvgawaBkKBjsBrPXhSJy7sHw6h1JMuwY1eiGS/8norlJ80w1RDTujZVDPV5stVm23RaJZqFa4QfMC39K5a6AgjUfzePCUVesQqZNDDz/NyuUZz0c28ea0DX3noENbd5lfKZIIHGd71bdMDQzn3RKrppKVA4TY1XPJRFTHm7HQxdzERDf+/dhF0nj5YGRnL9/K6xj3yAbTOqtBjYpisGdeiJFtFNYNCUtRsqX6Ej3n12QS4OJ8Vjxe6NOJAaD5sfAqqxbcHaAFzQoRf6tO2M5pFxoLfGWY1C5baRes/Iy8L+k8excvcGHMtMZkw7FCarsG9zEY6dLBS65/pd7EBRNqANESpDWRqmBNwACDQio5EKI1zV78npCwaBTgvN9Cq0Ddcg0qBC6wgt+rU0QqdW4EhqMbaeNMFcYsOe1GIkFpQgo8S5TCRAqJvFERPKoElWYdVLd7mypX+nCHz43CTEREf5vHEmsxlvfDIX3/55pFyUMoXCjqjwYAQEBCAhjcmN/L+OCBKaxejRqbsBYa1sUOq8q5NbvUGpRUxgGCICQxEWFCy2A4IFR6Gxn8lShPScbGQW5CI1LxMmm8VrvX5NA8Ube6Baj+jA0LNts9nL2U4QHBSaTSL+Q1ZBLpILsmCxWf3eNhWUCNYYEBUYKpJLMRgUUQJjP5SVW56pUDAamQU5SCnI5j0cNosCeSdVOLTTjONJJmF81xCK3Uq3WQUUSl1pc30MDBuCDBp6G10GCPU1amJVA+ANQOAcjtGrcH3XQFzfLxTtorSgEerG44U4lFYs/h4VqMKgNkbEBquRlleCP/fmY8ambOzILBbxrisWCRDqZpkwJnlsmA62ErMII132QO7WOlTEc+/UvrVTq3ZPWi08R9Iz8Ma03/Dbmvgz+SKo9ggLNiAoMAiJmcUuZeHzpP6q3mHdkWE6tG2jR2QrJQxhZBNOX7093bRPz3MRCLGCcaL4L8YLcVwkPK3DUwEwQd7p7lVsGz/J+A/UmdvFQ55W4uF7p90kySw4Mvg5vlQqN7uQm92uBEoAc44SGSdsOHakCMnp5gbAHJSRC41DbWbAbj0t5toWtodjJF87IwGXAQITMpWyB/W/eAMQNAoF7u0bgudGRyEsgFagpUVYjJ/+e+nCPiuHohI7FuzIw/0LU5BSVJnOlgCh7uYM2c2m4XqoYMHJVKbHLR2fIKMGN4/uiPGjB4nwwDVZkbvag/yCAvy1egs+mbcNiemFYs7QGjkyNABhwUE4lsZUtnVzA9RqlSCr0qKFAUERChgj7VDTgFEywK4Or/+fY9wHkwKFmfwBTiSYkJRWJNRkLjom+b+NbtfgHWvldnXyBZ9JwCWAUMoe0Nq6bjY2d3vrDUDQ/b/e9stxMZjUP9StZG7xmRaM/PQ4DhdIgODuePn7eTIJkcE6BGjpF52PvIIiQf2HBKjRvU04QoNI8/rmdmMuKsG+49k4lWkS4CBArxZqhRK7WiRlYqyHuiwEQmq1AgEGNYIDGS9eCZXDNbYuG9bI63bMPqvdjmKLHXn5JcgrsKDEWmrLIYuUQF1IwAWA4LA9qDnveF10oKo6vQEIegKEK2Nxfd8QtwAC8zOM/OQEDhVUZlkkg1A/ZoZep0KLSANs1mKRBY1uWvQl9vUGTENEBqyJCgtAcKAR8elm5JusLrsW1Q9pyVZICUgJNHYJ1AgQaFFrsdSjjI0uXPTWrS1N9xznQbImlQK4vLURtw4IQ1SQ2qWLZZHFjj/35eGTzdnIrsJYUQKE+rPMyCYEGdQINKigoSLYbhURHhmchaxC6YC7f2PjzZzZ9BicRKlUwWpXorDIhpwCZvuzefLJ+iM02RIpASmBRimBGgFCSQlp0TpiD1wAA1UyCF4ABH5Pq1AgUquE3sXYJtz/My025DmxSpcAof6tLdqQMLqYRq2AQauCXqMUoaYdOdrdazGjGtpAoFhQXIJiqx22ktIY+7JICUgJSAk0VAlUCxD8Ynvg4aHvjoBdYRBolxWiUSBQpUSGxYZCF13O2HwCCG79xcIiGQhWK0TaZ2ff8DVASCoMwHFTK9gVzsPLuiOvRv/s6bDG3sqBFugekA/eVivflxKQEpAS8IsEqgEIdlgsFjByokelFoCAs3ZVBRDUCoCpmyP0SmGxzphHY7sGYXArI979OwOrTprQL0aHfenFSDBbRUrnqkq0VolL2hiRY7ZhZYIJtFm4rXcIjmcV48/jJjAPDA0d081WmE9/w+cAoSAAx80SIHg0L+VLUgJSAlICUgIuScApQLDZrLBY6LlQ5qSsw0Pfpd6cfqgqgBCpUeKefqHo29IAtVIBvUaBHs30yC604dnFKTieWYwPr4rDG3+mY9HxQsEOlC0EGM2MKtzWLxTjewTj87WZmLc7H33jtHj2kiioFQocTCtCuFGFrEIbXlyWjn15peDK1wAhy6zDkYKm+D/23gPcjuq6+/7PnF5uL7q6TdJVveoFdQQSTQjTjE01GLCxg2Xc39hJnOSLnXx537Q3ceLETmLTi40poSOBjAUIRBECrrqE+pV0ez/31JnvW3vO3KZbTj9nzlnzmAcjzey957fL/M/aa6/ll9xjeN8no6PYXB7NGOR7mQATYAJGJzCmQBC+B7FaD9JMZSwLwiSrLCIhUpTEa+vz8O31pfjzF5vw7KFe1Bda8IubKvHTV1vwynEPyu0yXBYZx3qDqHSYsLrajluXFmBJrQP/+9UWPLa3B+V2E765phDLpzhQW2TFM7u7cekcN94+2oe/eb1Vi8LoMuH6ejOuX1woxFZDQwP8fi0WPVky6Ix8fX09KJ3r5s2b0djYOOGZfEWVcLbPjTZ/PvoVK8ixctC3ToICGSFYw1sQ8YgFBbLqFzEEJAqRyxcTYAJMgAnkDIFRBYLwPcikkwtRdsd4Pgjkd1hfYMF/31QpvMy/9tQZHPWEsLrUil/cXIm/frkFh9r9+OGGEuF09t87O/DNdSWYXW7F8VY/lk514Ob7T+GjzoD4MLtNEr44242/vnoS3jio5Vf/hzfbcK43iG+tLMT8ajtq84KYVeFImEAgHOT94A+aEFBoy0RLGUv73/QZJw/6Zo8LrV43VEthbLHQVQXmYBuqXN3It/pgEiHz+IqUQKxHJ0VOg3g0XaQN5PuYQI4TiHWO6j/ucgHfKAJBRSAYh+9BBlAbSyC4zBJWV9hw1/JCzJlkwz9sa8XvjvQJf4M1ZVbc/6VqbN3Xg5oiCybnm/F329rw+gkPalxmkFvigjIb/uJz5fjSw6fxceegb8bGGgf++qpy/GpHB1463ItzPkWEcy0xy7CZgB+scuLei0oSKhAmwuwLmnGqNw9twXKEZHuUgYAUmJVeVNubUOHyQKbjgHxFTSCWBShRER2jbiw/wARykADP0fE7/TyBoKij+B4YbOCMJRAur7bjLzeWCR+Bn/2hFe80+QcyMa4otuJXt1WJX+Kv7+/Fbz/pwu62AHyKdlLBKgFX1jrxZ1eW4Z4nGtHQPRgQ6YISK/78sjLsPOHB/32/E/4RHo6J9kGItDvIunCiuxDNwXJAiIRILhVmpQdTHedQ6uxncRAJsjHu4cUnDnj8KBNIAQGeo1EKBCP7HuivOpZAKLLIqHSZ0N4fQrNfGZZYiU4jTHaaEAip6Asq6AyIQ2vDLjrBUF9swe5WP7qHBEQqNktYXG5Dm1fBno7zEzalSyBQ49v67TjRkw+/XACFRAJlqBnNhC1eliwHfSixtGFaQQ+LgxQsUFwFE2ACTCBTCQyzIBjd92AigZCuTkinQCCHxoBiQqfXhuZ+F0jXUDygkRcFe3Kag5js6oXTEoRFZqfEdI0XrpcJMAEmkAkEhggE8j3wIxQyRsbG8eBFEigplfCjFQiRti2a/WpVpdMNE5iTxMkKbUuFLyaQrQRiMSvHyiKaORprHfwcE0gWgQGBoKoUj35E3INk1ZrkclkgJBkwF88EDEyABYKBO4+bnlICAwIhG3wPdHIsEFI6hrgyJmAoAiwQDNVd3Ng0EhACIVt8D1ggpHEkcdVMwCAEWCAYpKO4mWknIARCIOjLCt+DkQKhYt09eLvJjj809qUV9N9eXIjvXDY54jgIkTZ2tP1NckrU/A3o35GWNPp9WnJDisuo+SbwxQSygQALhGzoRX6HVBCQbDanqvkeTOTClormJKYO2mK4/6HH4K25DG9+tBfN7e2JKTjGUn5863r84I7LkiYQQooMb8gET9CKHr8NvUEb/KoJsgjvFNulOSoqsJsCyLd44bb44TQHxOkGFguxMeWnMoMAC4TM6AduReYTkMwWqxoMxpixMUPfjwTCs//zHJ57fSe6e/ugKukVP9+99258Z/NXEy4QVMjw+C0453WhK5iPABxQJTNUUEDpRF2UjyEECUE4pW6U2HpRZu+HxRRKVAVcDhNIKQEWCCnFzZUZmIAkybKaygmTClYkEHw+H/r7+1NR3YR1VFVVYebMmQkVCH7FhJZ+N5q8hfBLeUIYmGUZRW4zivOtcW8v0EvRFoPXr6Cly48+HwkCBWbVizy5E5OdWo4GDsM8YffzDRlGIJXrHR9zzLDO5+ZERUDKRnsxCQQSB729vVHBSNbNtbW1mD17dsIEQn/QgmM9hehRSqDIDtFsWQYumFGAqy+cium1ZbBarHG/DoXd7vP48daHR/H0243o9oRjZKhBWNVeVDtaUO7kXA1xg+YCUkqABUJKcXNlBiaQtQLh6WeexumuI3A5XeRhl9YuunL953D1FdcnRCB4Ahac6CtBl1IyLJ1zcZ4Ff3rHUmy65AJYrZYJU0ZHAkRfSI+fPIP/eGw7Xny/GcGQ7tWgwKr0YrK9BRWuXpjYiTESpHxPBhBggZABncBNMASBrBUIDz/6INbdvAAF5XmQJPLDT99V7ZyFmaUL4xYI/pAJR7qL0a1OCouDwXeqLrXjF396JebOmZ7wF6XtmvufeBn/+uxx+IND/Tm0xE51zjMocfiy0RiVcJZcYPoJsEBIfx9wC4xBIIsFwsNYf9tidFpP4WzP8bh6g+wPJpMFNpMDsmSCL+hBUAlAifDkx+qKq3HRtOviEgh0fLGxLx9n/JVQpPMzM5JA+M8/24Q5s+vietfRHvb7/bj/8Zfxs2ePjRAIdLcCh9qO6XnNyLf6E143F8gEEk2ABUKiiXJ52Uog6wVCu+U4Grs/i6n/JEiwmu3It5WgvmwFFlashVW24ljnfnxy9k009Z1Cf6BnQqGwdvJ1WF93Q1wCoctnw5HepdRE1AAAIABJREFUyfDLhRSV4Lz3SZ9AAKCGUG5uRF1+BzstxjTS+KFUEmCBkEraXJeRCbBAGKX3TLIZRbZyzChZiGlFc1GZPx1Wkx29/g74gv0odlaIj32r5wxOdB7AkbZPcbb3mPi70a5oBcJIz+egIuNYdxFaQxXnbS3o9aVVIACwqV2Y6W5Ens3PyZ6MvCJw25kAE2ACYQIsEEYMBbIazC69AFfOvA15tmKxnXCu9xT2NO3EkfZPEVIDKHVWY3HFhZhaNAd51iIEFT92nXkDfzj+DAIh33mDK16B0Buw4mB3FXxS/qjWA6ow3QJBIi7yWUwvZCsCry5MgAkwgWwgIFltDpUSNSlpDiaUSJh0zPHhRzUfhGi3GMjH4Lo5X8OiyetwpO0TfNC4Dae6DsMb7AMd+6OLnB4tshWlrirML1+FFdWXoT/Qh19+8GP0+bsSKhDozEBTnxvHvTVQJNuYmNItEAAVdqUF9YXNcJiNnzI8keORy2ICTIAJGJGA5HIVimRNFE0xGApAUYwfIS8egWCSTLhh3n1YVLEG3mA/TnUdwidnd+B09xF0eltESGqHJQ8V7lrUly/HrJIlKLAXw+Pvxc/f+6HYhhh5xWNBCKkyDnWWoEOtIFfJDBYIgKx4MNN1CiWOzAhQZcQJyW1mAkyACWQKASEQ9MaQFSGkBGB0i0JiBMJagUWIJyWAtv4mnOo8hL5AN6YW1qPUOVlYElr7zsBlLYDN7MC/v/ejhAuEYMiEho4K9MulY24vZMIWgwYriGm245jszowAVZkyybgdTIAJMAEjEhgmEPQX0CwKfoSUIBRFNVwip0QKhKGdSlsMQSWITm8rTnUexL6WD9Dc14irZt6O6oKZ+Pf3/iThAqE/aMa+rsnwScWZLxAQQo3lBKrzutlR0YirAbeZCTABJjCEwKgCYahQCCkhhEIBkQ46lceD4umlZAkEalOXtw1PNvwMZ3uPC4dEq9mBG+bei9qC2UkRCH1+Cw706AJhbCrp90GgtimotJzEFHcXB02KZwDzs0yACTCBDCAwrkAYFAoqFCUofBSMIBTiFwjfxKKKC0ftnvb+Jvzqw79Ct68NdOLBac3HDXO/gcl50/AfYouh87zn4vFB6AtYcKCbBEKRASwICqosJ1HLAiEDpjY3gQkwASYQH4GIBMJ5ZvaAX4iFTLUoxCMQ6BTDpplfxqqajaOGaNYFgifQjUJ7OVbXXiUCKHX3t+H+j34ifBRGXvEIBG/IhH0dk+GVSzJfIKgh1FpPoIq3GOKblfw0E2ACTCADCEQtEKjNKlQoIW3rIROFQjwCgawC5e5arKq+ErNKF8NtKwSdbNCvLm8rXjr4EGoLZ6O+bBnsZpcI5fx+42s42LpL+G0kUiBQkKQ97RXwyGUGEAhB1NmPi+RNfDEBJsAEmICxCcQkEEZaFAIBX0ZtPcQjEPR3s5hsKHfWYs2UqzCzZBEcFpfYUiAHTm/QC5MkodVzDjtOvIhD7R/DG+gVwmm0Kx4LAuVg+KyrCK1KJVSYxxxtmeCDYFK7MdvViEL7+cGijD1NuPVMgAkwgdwjIDmd+aoW2jf2lMgDFgVKYKQoIpZCOrcfEiEQaCjQMUabyYnq/OmYV74Kc8qWwixb0NhzDA3n3hGBlMjnIKSOHxgoHoFAkqOt34nPPDUISY4MFggKnKFmzC1ugdVk/FgaubcU8BszASbABIYTkOx2txAI2j/xp0UWRyRp6yFIPgpKWoRCogTCUFQWkx0l9smwW5xo7juJ/mBfxMc/4xEI1AZP0IxD3ZXwYGxHxXRbEGTVh8nWRtS4ezhhE68yTIAJMIEsICAEgv4eg0IhPosClaeqIdARSRIKqbYoxCMQxDbCGFsF9Hf0v2itI/EKBNpmONGTj3OByVBHSfVMvNMrEFSR8nlOwTk4zIEsmBb8CkyACTABJjBMIJwvFBJhUVCFf0Iw5BPbD9F+XGPpokgFgvjgi60ECfn2EhTYSuEL9aO599R51ZJoIItIJBdZGRxmN7q97WL7IV6BQHX2Byw41F2OPolOM5zfL+kUCJLqQ7W1EdXubojdKr6YABNgAkzA8ARGFQgjhQL9bB6ZgjjaNydhQB7+Whjn5PooRCIQ7GanOKZIJxToaCOldl5SuV7kXth5agvKXdWwm8N7/ipEaucjHQ0iFDVdsiQLp0WFRMMQq4LFZMWq6qswragebxx9Gp5AL+YXrcWF064W4qihoQF+v39AmMiyjPr6eoRCIWzevBmNjY2jsiYzT4vHheP9kxCU8s7zGaktteMXP96EObPqou2aCe+n9t7/xMv412copfVwkURZHPOlVkzPb4OdkzRNyJJvYAJMgAkYhcC4AmHoS5BAoI9ZPM6MVJ4QCsKikDyhMJFAoA97qbMKSyovhtVsFwKhNn+m8C/47ac/w6S8WiyZfDHO9Z6EN+jBJFe1EDcvHLof/mA/qgtmoNBWJsRBp68VJsmMk537xX/XFS3AZTNuQo+vE25rAawmB063HkX9pAviEgjELqRIONmTj+bAJIRkEi+DP9erSuz41x9ehkXzZsUt5kYO3j6PB7967FX88sUT8A8VCGoITnRgRl4z3FZN9PCVXgKxWOjiFf/pfWOunQkYi4CR5mjEAmG4VUGO+yNEkBQ1KMRCKBjUfokn6JpIIFA1JBJIGNA3lrYWbl3wfTR7TuPFg7/G3LJV4mjj748+hY7+Jiyt2oDagll49fAjQijcvPD7yLMWoM9PDnkyen3teGbfL1HirMQVM24R6aE/ObcD1875KrwhD5razmDVlI1xCwRqd0CRcbqnAOcC5VBl+4BIyHeY8fVrZ+KWa9bA6XSE+ydeez9F0FSw98BR/OzRd7HzYBdCiu6yEoQ91Ilpea0otHvjOAOToE7nYgQBIy0+3GVMIBcJGGmORi0QEi0UKOwSmdfJdE//TkS66UgEgv4eVpMdK6oux4qajdhy+FHsb/kASyavF0GS/nDsWXT0NwtLQ03+DLxy+GF4/D2YVboU+bZC2M1uzC1bLoIk7T67HU5LnrA2dHhbsXDSWswrX4kXD96PWmc9Lqq7PiECgdrtV2Q097nR5C+GD3kAbXdIEqaU2bF2QSkqS92wmK3kXBHX/FOVIPq8AXxyuBU7D3TCFyARp4JOLOTLHahydiLf5mNxEBflxD5spMUnsW/OpTEBYxAw0hyNWSAMFwq6j0I8HySyKKgIBSk6I20/xG5RiEQgkAUh31aMC6ouxbxJq7D77Jt479QWBBQfllVegoumXItuX4f47zxbsYh38NTef0evr0NYHqYWzcMV02/F6a7D2HbsSfQHeoVVwm0rwqrqjZhbvgLvnHwJu868gdUVV2N93Q0JEwjEnuh0e+041VuAPikfimSHBBNkkwSHRabvePyXBIRUFV5/2LlUDcKm9qDM2oVJrl7YON5B/IwTXIKRFp8EvzoXxwQMQcBIczRugZB4oQCx3RAKUr4HyiAZ/cmHSAQC+Q1QQqapRXNxuO1jHGz9CP4QmcolVORNFcmXuvpbEFD8yLcVQZbMONC6C/5QvwivTKGYqaM/bnoTFH6ZLhIOCyatQWVeHY527BH/UMbHRJxiGGvk05ZDe78dXQEXekIuBGGBAgtU0PZJPIINkFQFEoKQEYBN8qLQ3Icimwdua4BjHWToUmSkxSdDEXKzmEBSCRhpjiZMIAwlSs6M8UZnpPJE0KUYLAqRCAQqn6Iikg9BIOQfM/bBaCOFRIRJtggfipG+EybZLERGMHzagZ5PpkDQ20exEkgs9Pqt6AlY4QlaQHkcyGUgGp1AlglJJTYqrHIIbjMJJL84oWCSSTDwlckEjLT4ZDJHbhsTSBYBI83RpAgEApvIoEvklyB8FHRnRnV8+/mOHTvw8KMPY/1ti9FuOY7G7s+S1dcRlZsKgaA3hNCo4c94PLsMuhCgsFHRCIyIgPBNSSNgpMUnaRC4YCaQwQSMNEeTJhBGWhQSE0tBERkk6eTDeLEUclkgZPC84KalgICRFp8U4OAqmEDGETDSHE2KQDCZtPTIdCph6JUoqwJtPZBAoO0HEgwjLxYIGTcnuEEpImCkxSdFSLgaJpBRBIw0RxMuEMj/wOVyisRPvb29o55GSFRyKEUJwufznHf2mwVCRs0HbkwKCRhp8UkhFq6KCWQMASPN0YQLBPr4W61WsW/t8/nHDdwSr0VBVYPwelkgZMzI54aknYCRFp+0w+IGMIE0EDDSHE24QCDeeujWSEHEalEYXyA8hDVfnItjnftwtuNEGobBYJWXz7kJm5bcktA4CGl9Ia48YwlEOudGbv1l7Atxw5hAlhEw0hxNikCIpz/1fA+RxIcfTyA8+PADUCu6cOTYIXi93niaFPezX77mj3DnDX/EAiFuklzARASMtPhM9C7890wgGwkYaY5mnEDQB4RmVRg/58N4AuGDDz7AOzt3IBAIJCSoYDwD9fPXXY8vfuFGFgjxQORnmQATYAJMIKUEMlYgDBUKY2WRHE8giGRQcYRrTmQvlJWVoba2lgVCIqFyWUyACTABJpBUAhkvEMazKIx3iuHQwUM4sP9QUuFFWviF69bikks3sECIFBjfxwSYABNgAmknYBiBMFwoaMmhgsEgAoH+UY85PvLQ46h1X4LKyRWAKb0BgmcvKsHCVdUsENI+3LkBTIAJMAEmECkBwwmEoUKBIioGg77R4yA8+BgurL8b6C9Gb1cwUh5JuW/eOjuWXVLKAiEpdLlQJsAEmAATSAYBwwoELZGTb1Q/AwqU9AgJhPlfQdsRJ05/1hcXOz0XwdAUEKP92ViVXHRjES65aTILhLh6gR9mAkyACTCBVBIwrECgEMvBoH9UVokSCCQCKqe7sGB1EU4f6cPBXV0IhVRMqnVg7opCdLb60fB2O/w+yoE49sUCIZVDmutiAkyACTCBRBAwpEDQ8jCcv7WgA0mUQLDZTbj6nmpccFkJutuD+N2/HENHsx83/6AO1TMd6Gz24/G/OzahhYIFQiKGKpfBBJgAE2ACqSRgQIGgCssB+R+MdSVKIDhcZtz2ozrMXJIHJaRi97Y2HNvXi+vurYXVIaOvK4gn/v44Dn/SxRaEVI5arosJMAEmwASSTsBwAoGONgYCtLWgJk0gSDJgtZogmySs/2IF1l5XBkmW8NHr7Ti+txfXfqMaVruMs8e8ePL/alaFYEBBKDh6m9iCkPRxzBUwASbABJhAggkYSiCoKm0t+CcMgBSPBYH8DmrnuHHhteXoag1g73udWLK+BKWVVmx55Cy6Wv3YdFcVHG4T3t/SCle+GXOW5+PAB93Yta1NCIWRFwuEBI9aLo4JMAEmwASSTsBQAoH8DsbbWtBpxSMQyGqw8Y4qrLu+XGwr7HiuBW8+2wRFVeD3KsJwYbHJwqIwqcaBm78/FUWTrDh9xIP7/5/D8PScv/XBAiHp45grYAJMgAkwgQQTGFcgmEwyLBYrfL6xHQIT3J4xi6NTC/RPJIku4hIIsoQLr52EK75cCYtVwtE9vXji749CUVTUzHTD5pDFiYaejiBWXVWGK26vhMkk4cCH3fjNPx2Dt48FQqrGBNfDBJgAE2ACySMwpkCQZQlOpwtmsxn9/R74fKMfKUxe0wZLppgHgQCJlPGPEybCggAJKJ5kxzVfrcaUeS4c2tWNhrc7sHJTGabUu4TloKcjgHdfbIG3P4TLb6sUouDVh86IY5AkJHiLIRWjgutgAkyACTCBZBIYUyDQXrzVaoXNZhcCIRBIVzTCiU8tjAQUjwWByqJ3d7rNYuuguMKGy79UibJqu/hz/aKthB3Pt+Dw7m70tAfQ1e5nJ8VkjlQumwkwASbABFJKYNwtBi3lMkb9VZyqVk4U82C0dsQrEESZElBSYcNN35uKKXPcoJMNI6/eziBe+K9T+PTtjnEZsQ9CqkYL18MEmAATYAKJIpDRTorRbi3oUBIhEMhZcdXGcmz6ahWstiGmA9pBCP8nhV5ueLsTT/3bcfg8oTH7hAXCIJpIfEhGgiShyhcTYAKpI8DzNHWsM7mmjBYIoZBfZGwcL+ZBsiwI5IOxeH0JNt1ZKWIedLUFcPZYvzjGSNsNpZU2ESdh384uPPfLk/D1s0CIZKDzwhMJJb6HCaSXAM/T9PLPlNozViBo1gNvRKcWRsJMhAWByrRYZZTW2GG3m9B+zof+vhCgqrDaZBSW22B1mNByqh+9XXS6YuwuZQsCWxAyZcJzO5hAJARYIERCKfvvyUiBoGVqpIBIY/8qH69rEiUQqI6xsjaKP5ckqKOcWhjZNhYILBCyfynhN8wmAiwQsqk3Y3+XjBQI42VqjORVEykQJqqPhAJtNdC/gwEOtTwRL154JiLEf88E0k+A52n6+yATWpBxAkE7teCPOObBaBDjFQiyDNgcWi4G/VIUCEdEinNA/gnkqCjSQdc5sWBtEShEw/ZnznEkxQlGNS88mTDtuQ1MYHwCPE95hAgLut3uHmf3PLWQaFBSOOVYtxb01sYrEFz5Fqy5uhw1s5yw2LWsjZTaefszTQgFFMxcmg/K9EhX6WQbFm8owon9Hmx9pBHNp/vP80fgLQbeYkjtTOLamEB8BFggxMcvW57OIIGgilDKsZxaGNkZ8QoE+vhPqrFjwYVFmDTVgQ9fa0Nniw+tjT74fSGUVdlhtsogQ8LcVYWYt6YQz//ylIikOJqzIgsEFgjZsmDwe+QGARYIudHPE71lxgiEeE4tJFIg0LZB3fx8zFlRgKo6B/KKLTh5oE+cYDh1sA973u0YiJjoKrDgC/fVisyOv/2n4+hsHT0cNQsEFggTTUT+eyaQSQRYIGRSb6SvLRkiEFQEAnRqITHhnOO1IJDvAWVsXHZJKabNc+P3vz2HrjYfAj5FxEEgKwFZGZZdWiJyNLz+6Fk07GwX2R9Hu1ggsEBI3xTnmplA9ARYIETPLBufyAiBQMJAc0xMjDtEvAKBOppCK0+fn4f1N05G21kvPN0h7HuvC2eO9YktBsrkWDXThQ9fbcXu7W3w+8ZOJMUCgQVCNi4e/E7ZSyCWtZgjnmbfeEi7QKCBqAVEiixTYyRdkAiBQPVQGmd3oUX8W1FVeHpDCPpCKC63o2aOCyf396Gz1YfQGJYDva0sEFggRDJu+R4mkCkEWCBkSk+ktx1pFgh0aiEgnBMTeSVKIIzVJvJToLTPY20pjHyOBQILhESOby6LCSSbAAuEZBM2RvlpFQh0nDEQ8EWda2EitMkWCBPVzwIhWkJ8PxNgAkyACWQagbQJhHjDKY8HkgVCpg2z3GxPtL/CeA83N8cJv3X6CEQ7R6mluTRP0yYQyCkx0VsL+jBjgZC+Ccc183YKjwEmYBQCLBDG76m0CIREn1oY+YosEIwyPbO7nbz4ZHf/8tsZnwDP0QwTCMk4tTCmQJh3N1qO2HH6s760juSLbyzGpTdXiWOcDQ0N8Pu1gEpkqpJlGfX19QiFQti8eTMaGxtzyoSV1o5JcuW8+CQZMBfPBOIkwHM0wwRCKOQXJxeSeZEF4aEHH8PCys/jo52HcO5sSzKrm7DsL3x1FW65Zx0LhAlJZdcNvPhkV3/y22QfAZ6jEwgEm82hShQViNITJukymUyiZMqzkOiYB6M1mQTCE4//Fod3deNccxNCwVCS3iyyYr/6zZvw9ftuZYEQGa6suYsXn6zpSn6RLCXAc3QCgSDLshAIJpMZskwf8sQKBTKj5+fnwWw2o7e3Gz093QmLmDjWq5FA6OjoQEtLK0bNnpTiwT57zmwsWrSIBUKKuae7Ol580t0DXD8TGJ8Az9EJBIIkSSK+MX3IJckE+rWv/f/hVgWzWfvzQCC6fAm0x56X54bT6cDZs43w+SjuQXIvEgiBQGBgrz+5tU1c+uTJk1FXV8cCYWJUWXUHLz5Z1Z38MllIgOdohAJBv00/40nWBJPJIkQB/fp3u93iA9fT0wtFiS4sMkUeVJSA+GjH0iHRjksSCK+8/DK2vfAcEpPdIdoWDL//jq9+FXfd83UWCPFhNNzTsYz1XDpjbbgO5QZnHQGeo1EKhKG365YEi8WKgoICYa3v6/MIj/tIL+oAckwMhaKzPERa/mj3kUB4/MEHcOskCyqLCwGZrCHpu6yL1qBoxXoWCOnrgrTUzItPWrBzpUwgYgI8R+MQCIOPSnA47NAMB7qPQmS+ChTzQAunnLpLFwj3zi5DwdHd8H72aeoqH6Um+03fQ8ktm1kgpLUXUl85Lz6pZ841MoFoCPAcTYhA0HwUyIIgyyQMyKnRFHZqHCoahldGuRbIehDtlkQ0HTyeBeHeOWXI2/cO+vdvj7NIGbI9H7Ijb6AcNRSE0tMCVZ3YMuL88l+j9I7vs0CIsxeM9jgvPkbrMW5vrhHgOZoggTCyGH37gZwQZdkcdmocehelcSZxMPEHNNGDcsCCkCCBIJmsKL7pj1F40zfC76kicOwgGn9yN4KdJyZsPguECRFl5Q28+GRlt/JLZREBnqNJEghDi6UTDyQUdKdG+juyHlC+hVg6IN7xl3iB4EDJnX+Jkrt/SKYU0bzAkT04+f3rEWw/OmFzWSBMiIhvYAJMgAkwgQwjIOnHHBPRLi10MB2HlIUjo6pG7syYiPr1MpIlEIrv+B4ksxlqKITAsQM49YPPs0BIZMdxWUyACTABJpAxBBIqEDLlrZIhEIpv/RFM+UVwrbwU/R+9DVNRCZr+9UcsEDKl07kdaSMQi5WQj3Omrbu44hwkEMscJUwsECIYLJLJjuJbfgjJbEHeus+h773XYS6rRPMv/gLBjmMTlsBbDBMi4hsMTCCWxYcFgoE7nJtuOAKxzFEWCBN0M0WWlN3lgNmG/PU3wL3iUshOF5R+D0Jt59D62L8g1NsGpb8HaqAHGCMsEwsEw80nbnAUBGJZfFggRAGYb2UCcRKIZY6yQJgAuim/EhXf/idhLYDVCkk2Qw34ReAlyWyC6vNB8XrQ+dz96HnnGUAZPUslC4Q4Rzc/ntEEYll8WCBkdJdy47KMQCxzlAXCBIPAXDIVU37+GszVdSLpk/+zPeh8+tewTKpB4Ze+Bclqg+r1oPWXP0HH//wr1ODoAaFYIGTZbOPXGUYglsWHBQIPIiaQOgKxzFEWCBMKhGmY8vOtMFXUQJJl4Zx47v/cB/v0Baj4ya8BiwUI+NH6nz9lgZC6sc41ZRiBWBYfFggZ1oncnKwmEMscZYEQgUCo/ZeX0P/pu3CuvExsLXg/fgfmvCLYlqxB//tvwFIzHZ3PPcACIaunF7/ceARiWXxYIPCYYgKpIxDLHGWBEIlA+Kfn0Pbov6D41vug+LwItjdDtlhhnT4PPS8+Bueydeje/jwLhNSNda4pwwjEsviwQMiwTuTmZDWBWOYoC4QIBULrQ/+E4pvuRfvjP0ffJ3+AKa8EFf/rn9G/+104L1iHnjdfZIGQ1dOLX44tCDwGmIBxCbBAGNJ3iQqUZCqqRfVPH0P7k79A4bVfRvvj/4a+T7bAlDcZFd//Z/j2fQTHolXo3bkVnS/9N9QQOykadwpxy2MlEMviwxaEWGnzc0wgegKxzFG2IEzAmY41mgqqoXg6ITnyofZ1QAn0QpJNkPMqoAZ8kK12KL4+KP0dHAch+nHLT2QBgVgWHxYIWdDx/AqGIRDLHGWBEEv3ymbI9iJIVgeUnqYxrQZDi+ZjjrGA5meMQiCWxYcFglF6l9uZDQRimaM5JhAkSLY8yBbbsP5W/P1Q/X1j/vqHJMNaPhO26QsQOHscod4ulNzyXdhmLkDLf/4E/fu3Qx0tpbVkgbmoEpLJDOvV96Dktm+LzJYNDQ3w+/2iDVpyKxn19fUiudXmzZvR2Ngo/pwvJmAUArEsPjzGjdK73M5sIBDLHM0pgSBb81G46StwLLsIpoJiIBhEqLsdvW++iO63fgc12D/6OJDNsE9dhpJbvgU5rxAdz/4arqUXQXY40f7Mf8F/qgGQTUOeVUTAJNlWjJLb/hecyy5Cn9cL56LVLBCyYabxOzABJsAEcoRADiVrkiE7i2AuqUH51/4SgROH0f7CrxHsboG5oAz2OcshWwetC6qqINB0Gv4T+1F8/ddhmTIb/R9uR/+h3Sj/5v+LwNkTaPqPP4N9aj0c81dBsruAYEBYGbrffhpqwANbzUIU3fhNKDMWwj5jPguEHJlU/JpMgAkwgWwgkEMCQesucjqs+NY/wn9sP1qf+meovm446y9GwdV3wpxXAISt+0ogAM9H76Br26MwFVTAvWYTTK58SGYr8jfdIsIrd/3hMZgLquCYtwpF192Nvl3b0fPWiwicPQBV8YO2J2RbAVy3/xhFN38jaQIhFvNRuky8RmprNkxwfofMIGC0cW+09mZGL2dfK3JDIBx4C5ay6XCv+RxM+YVwrbwcSmcr+vd+gGBPN3p3PA/F201OAYM9rAII+qEEPDAX18K54ELkrd0Ea+0MdL/+NDpe/hUUTxdkRz7s05YIH4Oed7ag561nxakHyt1gn7lciAfTRVfDMfcCFgjk6aES2OiudImZ6FrJdzOBsQkYbdwbrb089pJDIDcEwv43ITmKYZ+yELLNBlUJCwFZgur3wnv0I6i+zlEJy45CTNr8D7DPXAjvoU/R8eLD8B19X/gZmAtrUHrnn8E+eyEkVwFUXz9Cbc1o/83P4D26F+Vf/yshKPplC+xzlrBAYIGQnFnMpWY8AaN9cI3W3owfAAZtYI4IhO10ZgCQTANbCMNMBYoy7ikGU165OFkQ8nm0Ew/hUwsUJ0FyFEKickFlUB0SFG8P1KAXsj1f5G9w3PTHST3FYKTJbKS2GnROc7MzkIDRxr3R2puBXZ4VTcohgZC+/kp2HAQjTWYjtTV9I4ZrzjYCRhv3Rmtvto2XTHkfFggp6AkWCEPsNeyDkIIRx1VkGgGjfXCN1t5M6+9saQ8LhBT0JAsEFggpGGZcRQYTMNoH12jtzeCuN3TTWCCkoPtYILBASMEw4yp8A51SAAAgAElEQVQymIDRPrhGa28Gd72hm8YCIQXdxwKBBUIKhhlXkcEEjPbBNVp7M7jrDd00SZZlNZbBkMlvrad7/vqsUlgb3kbfoR1pbW7hl3+KyXd+n4858jHHtI5Drjx9BGJZY9MZ/8No7U1fz2Z3zZLd7lb9lLBIpWN62XGRQHjsgftxEdqx/8Od6GxvTeuLbbjvx7j8m3/MAoEFQlrHIVeePgJG++Aarb3p69nsrlmy212qz0eJiqKPcJepaEggvPj889j2P0/B4+mjoIZpve6579v4+re+wwKBBUJaxyFXnj4CRvvgGq296evZ7K5ZstudYYGQPS9KAoFSKvt8vox4qcrKSkyfPj1jBEI6TZfUIdEuPulub0YMIm6E4QkYadwbqa2GHxgZ/AKS1epQAwFvBjcx+qaRQPB4POju7o7+4SQ8MXXqVMyZMydpAiEJTeYimQATYAJMIMcJSBaLTQ0G/VmFgQTC7373JDytJ5Cfny+yKqbzuuiSK3HpldewQIizE6L9VUPVsfUhTuj8OBOIkkC085TnaJSAU3i7ZLFY1WAwkMIqk18VCYRHHn4QV6yYjgKXTWRWTPgl8j1JEZU9afpiTJu3kgVCnJ0Q7cLDAiFO4Pw4E4iBAM/TGKBl6COS2WxRQ6FghjYvtmbpAuHKVbPhaT2CltNHYitolKdI7VpsDjjzimCxOtDb2Qyf1wOFEjiNoUMWrb8Zy6+4jQVCnL3AC0+cAPlxJpACAjxPUwA5RVVkbRwEsiBsWjUHvc0H0XTqYGJwShLKKuqwYuOXUDFtLmSzDZ3NJ7H7jadxbP97CAVGd4pccsltWLHxdhYIcfYCLzxxAuTHmUAKCPA8TQHkFFXBAiEK0O78Elx++5+gZuYSSLKMgL8fSjCI7vZz2P70z9F4bC8wSjwJFghRQB7nVl54EsORS2ECySTA8zSZdFNbNguECHnLJhNmLb4El9zyPVhtDnS1ncU7L9wvthgUJYTOltPo7+satTQWCBFCnuA2XngSw5FLYQLJJMDzNJl0U1t21uZiSPQWg9liw8U3bMa8VVdBlk3Yte1JvPvKAwiFT4CMNylYICRmUPPCkxiOXAoTSCYBnqfJpJvaslkgRMibBMKSi76AlVfdCbPFisbPGvCHp/4N/b2dwrfA6+lBKMg+CBHijOk2XnhiwsYPMYGUEuB5mlLcSa2MBUIEeMnfoGr6ItTMWIx5qzfBXVgmthW6284hFPDD7+vDuy89iFOHd4+a04ItCBFAjuAWXngigMS3MIE0E+B5muYOSGD1LBAmgCmbLKiZtQRrr74HzrxCNB5pwKQps8UxR9pqIL+DAx++jo/eeBL9veyDkMCxeV5RvPAkky6XzQQSQ4DnaWI4ZkIpLBDG6QVJklE9YzE23PxdFJVVi6h8PZ0t+HDr4+huPwurzY3mxsPo6WhCcIwjjlQ8WxASM9R54UkMRy6FCSSTAM/TZNJNbdksEMbgTZaD2llLseaar6KsajpILISCARza9Qbefv4/wycWJLHVMFEmTBYIiRnUvPAkhiOXwgSSSYDnaTLpprZsFgij8JYkE6rqFmDDTd9BccUUYTmgcNTH97yD7c/8B3o6m6PqJRYIUeEa82ZeeBLDkUthAskkwPM0mXRTWzYLhBG8SQyUV8/CuuvvFZGTK6bWC4FAloN3X7ofvV0tUacrZoGQ2kHNtTEBJsAEmED8BFggjGBIjocrNt6B2Us2YPebz2LxxZ9H8+lD2PHcfwn/g1guFgixUONnmAATYAJMIJ0EWCCcZ0GQMWfZpVhzzT0IBvxoPPIJ3nv14ZgsB3rRLBDSOcS5biYwnACbwHlEMIHICLBAGIWT2WpHRc1sUHCksyf2w9ffExnNMe5igRAXPn6YCSSUAAuEhOLkwrKYQI4LBAmQpFETLNGpBbrUUZIvRTseWCBES4zvZwLJI8ACIXlsueTsIpBbAkGSYXfmQVUUBP1eTJoyB3ZnPppOHkBfd9s4PSvBanfCanPC09MePtpIt0uQZVk4MdIlm60oq6oDnYKgMukIJPk0LLjoi1hxxZc43XN2zR1+G4MSYIFg0I7jZqecQE4JBIerEOuu/yN4utqx571XsOZzX8Hkunl498UHsP+DLWOeTpBkMxas+RzqFqzBa4/+Pfp6NDFBomFq/UrkF00ScRLsrnxUz1wkynn1kb8VRyRnLLwQXq8f9SsuZ4GQ8uHNFTKB8wmwQOBRwQQiI5AzAsFkMmPmooux+uqvwNvXDW9/LyxWu7Ac7Hj+v9Hb3QoJmiVAvxRFEcGRbA43Ntz4bSjBIN59+UHxjKIEYXPkYfqCtXAXlAiBMGnqHFROX4hPtj8rQi/TSYj5a6/G2ZNHMWvpxSwQIhuTfBcTSCoBFghJxcuFZxGB3BAIpw+hvGoG1n/hPpw4sAu9nS2Yu3oTGt56XiRYKiipxPzVm8QHX79CoSDOHt2DhndfQmFZNT53959j1++fwsxF6/Dxm8/gxIEPxRaCtr0gwe7Iw4Zbvgd3YTle+tVfCBGxYO21WEAC4cQRzFq6ngVCFk0cfhXjEmCBYNy+45anlkBuCIRTh+DKLxYm/+7Ws5i7ahOm1C/Hqw/9DTpbG5FXWI7KafNgstrEx54uVQmho/k0OppOYNmlt2DytLnC0rD44htQUFqJVx/+W3S1nRECgYTFnAsuE2Lgg62P4dDH26GEglhIAuHCa3Du5FHMWLyOBUJqxzbXxgRGJcACgQcGE4iMQI4IhIOChs3uxtyVG7Fw3XX46I2nsG/nKwiFAmOSIgfDmhlLsP7G78BsswnLg9XqgLuoHG89+x/Y+96ryC+uwNINN4qMj3vefRkNbz+PQMArylx44XVYddVd6O3pQV5hKQuEyMYk38UEkkqABUJS8XLhWUQgpwRCUXmt+KXf3nQcx/buhN/rGbcrJVlGSUUdymtmIOj3wdPTKU4x1Mxairazx3HmWAOqps1HafVMtJ4+gnMn9yHg9w2UWV4zGzUzl6C0di6m1l/AAiGLJg6/inEJsEAwbt9xy1NLIKcEAh1JlGUzyL8gnvgGdIxRe14Vzom0K0FHJ0e7aAti8YZbsWLj7SwQUju2uTYmwFsMPAaYQBwEckogxMEprkc5UFJc+PhhJpBQAmxBSChOLiyLCbBASEHnskBIAWSugglESIAFQoSg+LacJ8ACIQVDgAVCCiBzFUyACTABJpBQAsMEgh4yOBaFndBWxVnYjh078MjDD2LTqjnobT6IplPaKYZ0XSwQ0kWe62UCTIAJMIFYCQwIBBIHeXl5MJlM6O7uRigUirXMtD/HAiHtXcANiJNAtCJdF/dxVmuYx6PlQy+Wa4wM05kGbWgujMEBgUAe/rW1tSgqKsKRI0fQ29s7Zm6CTO9PEggPP/wg1i+eghMHP0LzmRNpbfLF19yFy274Cp9iSGsvGKvyaBefXPv4RcuHBYKxxr8RWpsLY3DYFoPdbofL5UJHRwcoD4FRLxIIDz54P9BzEieOfga/z5/WV7n1K/fh9nu+xQIhrb1grMqjXXxYIEzcv7nGaGIifEc8BKKdo0YUqYbwQaBtD6vVCq/XG5FVgwRCQ8On2LXrQwQDwXjGQEKevfLKTbj6mmtYICSEZm4UEu3ik2sfv2j5GHFxzo2Rbty3zIUxmPGnGMxmM+bMqUdenhuffvop+vr6JhxRJBAy6SopKUFNTQ0LhEzqlAxvS7SLDwuEiTs01xhNTITviIdAtHPUiCI14wUCTeqpU6ciPz8fR458hr6+3gn7lAQCiYlPGj6d8N5U3HDZpZdi05WbWCCkAnaW1BHt4pNrH79o+Rhxcc6SoZy1r5ELYzDjBQKNLtpioAUwGIxsu0A4KT76CKasXYiKyZNhEimZ03fNnFSLRVNns0BIXxcYruZoFx8WCBN3ca4xmpgI3xEPgWjnqBFFqiEEQrSdqAuEVV/cCJ9TRpd3YqvDxHVIkEloSFLYgVOd+JHwHUvLZ2DN1PksECImxjdGu/jk2scvWj5GXJx5FmQ2gVwYg1ktENbceCXOSn040dkc90gzyybMnzQNeVYHPmg8CG8w8pMRl05ZjE2zV7BAiLsXcqeAaBcfFggTj41cYzQxEb4jHgLRzlEjilQWCBOMENqccFhsqCkow+fnXYg8uwsv7n8XB1pOCcuEok5sSWCBEM80zM1no118cu3jFy0fIy7OuTnyjfPWuTAGWSCMMx5NsowpBZNw2cylmFZcCZfFLrYZ+oN+tPZ14g+ffYKGpqPwBHzjjmoWCMaZ9JnS0mgXHxYIE/dcrjGamAjfEQ+BaOeoEUUqC4QxRggtJnVFFbhp4QYU2t3Y33wcVfllyLM58N6p/Zg7aSry7S5sPfQB3jz+KQLjhKZmgRDPNMzNZ6NdfHLt4xctHyMuzrk58o3z1rkwBlkgjDEeC2wu3Lb4UlQXlOHlgzvRcO4YVtXWg/58y+EPUeoqwA205WBz4bHdr+Fw+5kxgzixQDDOpM+Ulka7+LBAmLjnco3RxET4jngIRDtHjShSWSCMMkJoIZlTVoM7l27EnqbjeGrPdngDfpCjokmS4QsFQLkr6stqcPuSK7C36Rh+17AdvmBg1PHGAiGeacjPMgEmwASYQDoIsEAYQZ18DJZWzsDKmrmYVVaDw62n8daxT7Gv5SSmFJSjwOHGp+eOosxZgAunLsCy6lkIhIJ47+Q+vHZkF7yjiAQWCOkY2lwnExidQC788uO+ZwKJIMACYQRFshDcuHA9VtbMgdVkQX/Ah50n9uKVQ+/jkulLUJlfikc+fh2ziyvxhUUbxJYDoKK5rwv/8tbv0OPvP69fWCAkYqhyGUwgMQRYICSGI5eS/QRYIIzoYzrWWOYuxLKqWbhsxjLsPnMYWw9/iJa+LjjMVtjNVnT098JptWH+pKm4bu5atHq68cK+d3C04yxCo2TBZIGQ/ROJ39A4BFggGKevuKXpJcACYQz+1QWluOeCz6HL24dHd29FW38PCuwu4YfQ7umBxWTC+mmLcemMpdh65EP8/shuhNTRU2SzQEjvIOfamcBQAiwQeDwwgcgIsEAYgxNtL1w2fQkurluMI22N2HF8D9ZMnYtiRwF+1/AHzC2finXTFuBkRxN+0/CGEA1jXSwQIhuMfBcTSAUBFgipoMx1ZAMBFgjj9KLLasPnZq3CBTVzEFJVWE0mYUHo8fXDZrbgXHcbntn7Fo53No15xJGKZ4GQDVOF3yFbCLBAyJae5PdINgEWCBMQdlntmF1ajQWT6jB/ch2sJjOOtjWK4490mqHN0z1huGUWCMkexlw+E4icAAuEyFnxnblNgAVCBP1PcRHImvD5uetQ7MjD459uE1sKozkkjlYcC4QIIPMtTCBFBFggpAg0V2N4AiwQIuxCEgnF9jzhnNjs6QqnfI7sYRYIkXHiu5hAKgiwQEgFZa4jGwjkpEDQQ67qkRH9ocB52wQUD4GCJtHJhEgyNo43GFggZMNU4XfIFgIsELKlJ/k9kk0g5wSCLMmozCtGCApW18wTMQ+2HHwfJ7takGe1w68EEVQULJk8HdNLKvFR42EcaTsDl80uhILH74MyxnHGkZ0lQYJsknFpzUJcMWu5cGRsaGiA3+8Xt5JQESGb6+sRCoWwefNmNDY2ij/niwkwgeQQYIGQHK5cavYRyBmBYLdYUFc0GYUON5ZWzhJ5E8pchTDJEn77yRto7uvE1XNWwyzL2H7sE8woqRL30f/f03wcG2csR2V+Md44+jEOtJyCw2KFx+8VosFiMgtrA10qgGAoJCwP5K+wpnYeat2lqCupZIGQffOH38iABFggGLDTuMlpIZBDAsGKldVzxIef0jb3Bbxo9XThs9ZGfHTmMOaWT0FlXglOdbXgZGcT5lfUiY/7r3a9hHJnIerLp+B0ZwuOdp5FvtWBTXNW4ek929Hm6cWmWctRWVAiEjmFFBXbj36Mfc0nYDVbsLK6HhfXzBc5HNiCkJYxzpUygWEEWCDwgGACEN+jseYCWbbDVm6JfvRm1bVjxw48/OgjWHPjlTgr9eFEZzNMkoQVNfXYOHM5Wjyd6Pd7UfL/f/h/++nv0djThur8Mqyoni3iHRxpPY1Ns1eKAEkvHdyJArsby2tmI9/qFEcbL562CJ3ePjyz502xJTG3rBa1heVwWu2oLajAB4378dbxPQK+RTZh47RlWD99MQuErBpl/DJMgAkwAeMSoG1tZZTUAPRGZrNZbHXnjAUhz+bETQsuFi8dUkIinwKFU27q6cALB3bCHwyi0OHE9OIqXDJjKXp9/Xiy4Q209nWJZ9xWBypcxdgwYxEK7Hl48tM3RIAkcnRcVFGHuZNqhUAodRTi7ZMNePNYA2RIcFlsWF+7ABfVsUAw7lTiljMBJsAEsosACQT6Z+RF37ucEggnO1tQlV+KNVPmoaHpKBZVTBcBjnp8HkwrmozXjnyISe4iLK+eDZfVgcNtp/Hxmc/EFgRdM4orsapmLgqdbhxtP4sPTh1AiwiQpIjASWunzke+zQW7yYLaokl479Q+YUGoyS/DhumLUekoQomrgC0I2TW/kvo20ZrB2bE1qd3BhTOB8whEO0fDJvuMIckCYdgWgyx+7atQhSjwhfw4090mnAv9oRDcVrtwNiTnxf6gbyAIErkeOi12OCwW+EIhkf45qAyqLnq+yOEWz1pkM6rySnGurx0nOppgNpnhslixtnIuNsxYygIhY6ZG5jck2sWHBULm9ym3MLsIRDtHWSBkSP+P5oMwtGn6iYN44xsMLVM/mChJ5NyhDoudwHEQMmRgGKgZ0S4+LBAM1Lnc1KwgEO0cZYGQId0+kUBIdTNZIKSauPHri3bxYYFg/D7nNzAWgWjnKAuEDOlfFggZ0hHcjJgJRLv4sECIGTU/yARiIhDtHGWBEBPmxD/EAiHxTLnE1BKIdvFhgZDa/uHamEC0c5QFQoaMGRYIGdIR3IyYCUS7+LBAiBk1P8gEYiIQ7RxlgRAT5sQ/pAuE1V/ciEalR0RGTOd12bSluKp+FZ9iSGcnGKzuaBcfFggG62BuruEJRDtHWSBkSJeTQHjokUcw+7LleO/jXTjX0pzWlt122bW446ovsEBIay8Yq/JoFx8WCMbqX26t8QlEO0dZIGRIn5NA+O2TT+LjY/vR0tYmIiem8/qj2+/GvXfdwwIhnZ1gsLqjXXxYIBisg7m5hicQ7RxlgZAhXU4CwePxoLu7OyNaNHXqVMyZM4cFQkb0hjEaEe3iwwLBGP3KrcweAtHOURYIGdL3JBD8fj98Pl9GtKiyshLTp09ngZARvWGMRkS7+LBAMEa/ciuzh0C0c5QFQob0PQmEF158AdvefA0mSlsp6XEO09PAO277Mu66424WCOnBb8hao118WCAYspu50QYmEO0cZYGQIZ2tOSk+iBnrKlBUVihSPafzml2xGIvrVrJASGcncN1MgAkwASYwQCCnkzWRQFi8aRbOeg/jZNuROIeFBFmSxT+ARJkWRCZHoSAlCfn2QlAOhq7+dkBVzqtr0/xbcc2y27JKIBhdPcc5IPhxJpDxBHiOZnwXpbWBOS8QlmyahRN9e/FZy/6YO8JqsmFSYQ2WTFmF6qJpsJit6PS0Ye+pXdh/5mNR7lfW/wAOixu/eP2v0ePTUkQPva5beCc+v+JOFghptuTEPAj4QSZgQAIsEAzYaSlsMguEOASCBAkFzhKsr78Kl82/Dm5HIWRomRrJiuALevHRsbfxxr6XcPdF30OhqwR/8sSd6OhvY4EwxiDnffIUzn6uKucJsEDI+SEwLgAWCHEIBNo2uHX1ZqyedSl8AQ/eOfx77Dm9C8GQH5WFU3DRnI2oLqnDuc5TyHcUgQTFj574MguEcYYkCwResJhA6giwQEgdayPWlLUCgT40tP2v/Zo//9KdFGPdYjBLZlwy71rcsuZedHk68Jt3folPT70Hb7BfCIE8ewEqC6fihhV3YW7VEphkM7r7O/Cjx1kgjDdRWCAYcRnhNhuVAAsEo/ZcatqdlQLBZDLDZnNBUUIIBn2gl1SHOAbKsglvvfWmOMUQq0AocpbhR9f8A8ryK/CrN/4RHxzbjmAoIHqtxFWOzZf9Bdz2fNitDpTlTxYCocvTzgJhgnHNAiE1E59rYQLi55P2Kyqqi+doVLgMfXPWCQRZNsNuc8Fqc4qOIZGgKEGEggFh+g+FgrBaHdi2bUvMAoEmyOLa1bjvir/Ekab9+PmWvxrmeFjqnoTvbvob4Z9AFgyyKNDV2deGv3/xj9Ht7Txv0LCTooaEFx9DryfceIMRYIFgsA5LcXMNJRDo42EyWemzH/7wDz8uSMcI7XY3zCYbJFkCWQpoh0GFKo4fKmoIoZAfgIwtW56PWSBQWZfNuwG3rbkXWxuewVPv/xr+0GBERpMkI99RDJNkHtadISUojjkqOP+YIwsEFggpnvtcHRNgCwKPgXEJGEog0C9/uz0fsiSBPrbBoGYRCAa9IsaAzerUBIQkDfwSpd/uQiDIZqiKIp6jP9my5YW4BMIl9dfitgvvwxt7X8Bvd/5ymECIZcyxQGCBEMu44WeYQDwE2IIQD73sf9YwAsFkssBuzwP9W5ZlqCL7oma8D6kh/WSh6DHaVjObLZr1gHwPhEpQEVIU8W+yRLy65bmYBQI9v6BqBb595U9wuv0Y/vnlH6PL2x7XaGGBwAIhrgHEDzOBGAiwQIgBWg49YgiBQKLAZnPAJNtEygRJpoiFJrHNoJ1WUMX/H7ik8PbCgBOOOmhKU8meAGyJQyBQPYWOYnz7yp9iWvkcPPPe/di691n4Av3Dhg61zSJZ4FfIeXF8ZyAWCCwQcmjd4VfNEAIsEDKkIzK0GRkvEGhrwGF3QzZZhCFAEn4Fivi3EgoJ6wBtHZClgLYZRIgiscVAxLWtBiEeVAp/TA6D2qc6XoFAfgYrp1+Kuy/+nij3yZ2/wvtH/4A+X4+ogYRBbelM1FctwjuHtqGl9+y4Q4AFAguEDF0juFlZTIAFQhZ3bgJeLaMFAjkZ0okEsiBAkjWBIHIdaFYAzQFR20bQvd9pwGsCQbMs6BdtRmhPaQ/Fs8Wgl+m0unHVwptw5eIbhd/DZ037cbrtKEKqgkn5lZhWPhtOmxtPv/cAXtvzNILC/2H0iwUCC4QEzGcugglERYAFQlS4cu7mjBYI5Edgs+WFEyAJdaAdGCRLAfkWhAWAbjUQ4kAzHAjvBEqWpAkHTSzowkFRlLgtCPpIcVicWDl9gwiaVFU8FRYSM+QXoYTQ3tuCD45ux2sNz6Ld0zKux3A2CoScm038wkyACTCBLCKQ4QLBCoc9X/gc6Ep3mEAQHaFvGgwxKYRzIWiiQFcMQy0KdIoh9mOOI/vfLJtR5ChBRVEtytwVgCyjtfssOvpacK67UQRQCts8csqCkEXzhF+FCTABJpBzBDJeINDJBeFbELYODIRQFh9+cj7UfQ7CAiCcXlmzLghTgmZpIKUwYHEgC0LsxxzHGyUmySTkCcVciOZiC0I0tLLnXjbxZk9f8ptkJ4FcnqOGEQj0nRdbBgMWAy06oXBSFOJB9zGgPyJnRe1e3QtBbC+Exy+VE78FYajlIvKJQSGXXdZ8BEM+eAJ9Aw+yQIicYTbdmcuLTzb1I79L9hLI5Tma0QLBYrGJwEjaFbYIhJ0MaduBfAmEj0HYv0AXENpphrBDoi4LRC4GPWxSbIGSrCYrZk9eCIfFDac9H7uOvoke3/lhkwenigS3NQ/VJdNgEREggYrCalw4eyP2nd6N5z96BP0Bj/hzFgjZu8CM92a5vPjkZo/zWxuNQC7P0QwXCHbYrC7tRAIdUaQTDPp2wZDtBV0g6Pv8w7cdaHeB4iSEwxuHjz9s2Rr9FkOBvRi3rv2GyLFQWVSLv3v+BzjTeWLM8U4hmWdOWoArF30BTlue8KWYXFADOv3w4u4n8PLuJ+ALeVkgGG3FSGB7c3nxSSBGLooJJI1ALs/RjBcIdptb6/jwsUXdSTEcJnHAsqDFONC3HQZPLQwPUBT+e1WN6ZhjsbMMt6/7FkyyCXXl9fiH5/8Yff5eBJUA6srnoCxvsubrEL76fb040Pgx+vw94s8n5Vfh65f+KY42H8Bv3vkFenzdAwGU2IKQtPmd0QXn8uKT0R3DjWMCYQK5PEczXCBQ7gVXuJsGP+7aqQb6YwqQpPshqpBN5oHoihRMia4BHwTIgKTFQIgtUJKEqsKp+PolP8LR5v1YMWMDntr5a6yadQl2HHwNDqsLdeWzxRFM/erobca2Pf+D1t4mWM12XLPkVqyedZlID33wzG5q/cC9LBBycz3K5cUnN3uc39poBHJ5jma0QKDkTFaLM/yjXPMrGDi2OOTjqm8paPEONL8E/Xe86Fzx39o2hd7Z0UZSdFpcuGbZ7ZhbtQTb9jyPuy7+Ls60n0RTzxk89ta/ocfbJXJEDL2oLkoOVVFQjYvrP4eFtcuxff8rIsGTNzQ8LDMLBKMtG4lpby4vPokhyKUwgeQSyOU5mtECwWZzCYGgfe21I43076EnFvRwyuJv9GBIYaEgbAUjAiXpzo6vvvo/USVrmlo6Czcsvwu7j7+DxvaT+NLab+BY62G8tPs3aO09O2YQJPI3uH7pl1FdWiesCQ2n3odfpJwefrFASO4kz9TSc3nxydQ+4XYxgZE/9KIlokf2jfa5TLs/swWC1QmrVRMIA1aCcLIl/ZCh5pOg2Qu0kAfaaQU974IGnOIh6IGSxIHJqI85miUz7DYn/AGvcHh0WJ3wBn0IKv5xIySSmKHtB/q3N+DRMk+OcrFAyLSpkZr2sEBIDWeuhQnESiCX52hmCwRhQXAM+eAPHlPUO1tsJlCehgEXBQrBrP0tdSzlc6CYCAMqQ9ggkhcoKdZByAIhVnLGfi6XFx9j9xy3PlcI5PIczXCB4IbN5tQ+9nRMMRwUSVVDkEAffk0AaNEVyWFx0EdhMEiSSPc4JI+Dlt0x/ogoBYMAACAASURBVEBJiZ0eLBASy9MopeXy4mOUPuJ25jaBXJ6jGSsQ6KNvs7lhsdh1c8AQgaAlXtIsBOQYqO1B6A6Jup/C4LZC2I0hvNtAYiJZoZZjnUosEGIlZ+zncnnxMXbPcetzhUAuz9EMEgiD8QPEd1wIBBfMFIFQ90EQ2wMhSJTvYCA7owxZIqtAOBCS2GvQHBopUJF+qkFRgiLQkiLCMivYsvWlqJwUkz0ZWCAkm3Bmlp/Li09m9gi3igkMJ5DLczQFAmH4hz+SwWcymcWH3WZ1wmzWQhRriZwH4wYMPbGgl6kdclBExEL9dIPWuXr8AxIOmo/C1tdeZIEQSWfwPUklkMuLT1LBcuFMIEEEcnmORigQ5MEvc4Kgj1UM+RQ4HPni17/4ta+na9ZyJAIU8Ch86SJB80mgQEiD8Q5EWOawtAgncRwmMHQfhEUbZ+BIx6c41nwwyW82fvE3LLsLX1hzt7CMNDQ0wO/XjkKSJYW2Uerr60GdtXnzZjQ2Nmo5KPgyPIFcXnwM33n8AjlBIJfnaEYIBBHYSPwjC6dEs8kmPoqhUCCcdGloKmcSCvqphYFwSGHhMKhj9LwNen4GTStof09/tnXri3jg4QdgruzHJ3t3o7u7K62D/Ws3fgtfu+VbLBDS2guprzyXF5/U0+YamUD0BHJ5jqZdIJAwoIiJtJ2gORnSr2byK9AEgmZFkKEqwfA2g57ymX5ek1DQTylQIieKomgatCTQyQY9tvLAMUhty4EEwssvv4ynn3sKPp9v3FgG0Q+p6J/Y/EffxDc3f5MFQvToDP1ELi8+hu44bnzOEMjlOZp2gaCldM4D+R3Q8UPdrE7/VkIkCrR4BoPbCUMFghZSWSSCHuLIqG8vDGZ31PwO9F0H0iEkEAKBgPgnE66KigrU1dWxQMiEzkhhG3J58UkhZq6KCcRMIJfnaFoEAvkZ0D90keWAkiyZZHPY+E+pmUNhf0RVWBC0/yCRoEVB1C5NGpClQfvP8L9FzAOyOJA1Ifxk2ApBz2rHIzWB0NHRgZaWlpgHTiIfnD17NhYtWsQCIZFQDVBWLi8+BugebiITiMm6nC0+YikXCGQpsNvdMJkswkKgZ2Y0mUzia64MBDwa9C9QFRIKQTFU9QVVuCPSFoMsD4gL7Vlxl9huEJYHcUYyLAyGnIJ47bWX8Zsnn0SbbEFxUWHanf42LL8AG9ddyAIhxxYkFgg51uH8uoYjkMtzNKUCgRwPrVYXLBY6ujjohU8fehIIoWAwvFcQjnVAUQ9CtAVAH3zKr0Afff0kgypEhiyZIJsoLoISTvWsxT5QlZCwOGjPUEwEcm7Qxib9PQmEBx95BPVXbIKcl49ASLdMpGf8LqmchNXTp7FASA/+tNWay4tP2qBzxUwgCgK5PEdTJhDI5EKWAxH4SPtMh3MsaB9viXIm0JdcCADaJdC2IGi7QT/ySMcZKeARWRRkEzkymoUFgUSCyLcQTuSkRVVUhDVCv7RQzWGPBVXFa6+/IgTC/CuvxpF+Lw63tEYxZBJ/600L5+Hm5UtZICQebUaXmMuLT0Z3DDeOCehfqsFz8hEz4S2GiFFpN1LAIxIImluhdmnbC1oQI/3jrTkbajkWRFZG8kcIOxPQhoGwDNChRuFzoFkFhE8D+RYIiwP5L2jBkjRfBk2ICF8GcapBc1h8fdurAwLhsKcfB5uT44tQ7HSiuqgAh5pb4A1o2ySjXTcvmo9bVyxjgRDluDL67SwQjN6D3P5sJ5DLczRlFgRxlJESLwk9oB1dHBAKQ9Iz6y4EkqwFPaLtA9p6EFsLInQybT+QyND+XhMP4UROStihUZQdjnmgBKEMcW7UBcnr2wYtCLEIBIvJBLOI2Eh+Eyr81MYhM4UEi9Niwdrp03DbimV4qWEvXmjYi/4xRAILhGxfZkZ/v1xefHKzx/mtjUYgl+doygSCzeqA1UaxDrTogPov+7ARYCB/gmZJkGAiC4BwLqR4CJRHQY9zpCVqEtYFVYWJrAcmshZovgYi4FL4PARFVwyF/EKQkD8CbU9opyFUbIvDgkAf/431s7GgqlLU1ePz4rX9B3G0tR0hVYXNbMaauqlYVluN6qIizK4oR1d/Px5/fxde2XsAAbJyjLhYIBht2UhMe3N58UkMQS6FCSSXQC7P0ZQIBC0YkhNWK2VmHPAUFB9z2gYQWw1KOKyyLhBMdOxRS/Os70AoIXI8HBJ+OWwpkOUhyZpE+SQwKGCSFktBPylB1gcRnVFV8foQH4RoLQhkOfjuJRdjw+yZ2siUgENNzfjZtjdxsrMDG2ZMx9cvWos8u00LlRzOPLmn8Sx++tIWdPt8LBCSO6cNU3ouLz6G6SRuaE4TyOU5mjKBQJkZLWZbWB9oH3Ftv2GoYX6I46Iw32tZGXWHRt3qQNsP2mkGrQxx3DGcm4BEBP05+SWI+8JZHgeCJink6BjC1tdeitkHgT74y2qqMa2sGFaTCSunTkV1cSGe+GAXznR04a41K1GRn48Pjp8UVpBVddPQ2NmJ/357Jz46dQohsRUy/GILQm6uQbm8+ORmj/NbG41ALs/RlAkEYUGwkEDQAhWJH94DiZi0T73YTiCLgp6bQfgmhK0AYSfEQb8DsZ8g/BD0lM4DWkP8OTk6moVQoK2FkBIM/3/tCOSWrS/ELBCGDnBq67yKcqyfOQMHmppx5+oVKHY5sevEKfx8+9uYXVaOm5Yvxq93vIeGM2cR0tNSs0Aw2jrB7WUCTIAJ5BSBlAkECqdsNlnCwkDzH9DCGFEWRs1yoPkVaH4H2olEzV9A90vQ0zYPpH0O+xsIG4NeRLj7qC49D4N23JHq0k4zKEpARFLUjzlGu8UwcoSQFWFxVSXuWL0cdWWleP/YCTzwzns43dklthkq8tw41tYB/yi+B3pZbEHIqXnHL8sEmAATyHgCKREIFD3R4cjTTi6oFPMgbPofZgGQwx907UuvH3cc4rIwLNqhCLqskPMixUDQPv66JyOVQMcqaSuAnBfFiQhJ0k5DhM8avPLKs3EJBM34oZU7o6QY37nkYkwtK8HBpma88PEeTCkpwvMNezGjrBQ3LF6IB959H4ebW8Kho88fF9EKhEhHVracx430ffk+JpAIArGYlWOtl+dorOT4uWQTSLpAEKGVbS6RjEkLe6x9ovUPrO50qG0KhK0G4Q++bk0Imx20iIjC/0DcGA6qpFkjhm5X0HFIitqoOweKbJCgSItaMCXaxtgaxxaDtq0wCTXFRbCYZFw0YzrqJ1dg35mzeOjd93HtogVYPq0WO44cgySpuGjmTBxva8V/vvUu9p5tGjW2NwuEZA91Lp8JRE6ABULkrPjO7CWQVIFAJwlslHdBJGIa6pc4+EEXyZMG/0rbKxg80ygiKoqTDsJ3YTBR0zBBMGR7QRcV5H+g+zJQ1XRUUoRgVkPCcTEeJ0U6xfDt9etw0ewZkOnEhEnGibZ2/Psbb+FgSys2zZ2NL69eAYeFtjkgHBlpa4P8Ev7PltfR6/OfN6JYIGTvJOM3Mx4BFgjG6zNuceIJJE0gkHOg3eaESQ+trB9a0L0NxK/6wdDKwv9Ai6KkbUHo8RLCCZr02AmaUNCtENozujViwDoRzu2g+x2ENy0QDPq1CIuhYFxOiiZJEtsGy6bUCC3T1e/FC5/uwb5zzcIJ0WW1YMOsmVgzfRrK89yoLiqEx+/Hk7s+xjMffwp/MP44CJEOBTZfRkqK72MCgwRYIPBoYAL0w5pCA5z/vaLvitk88CNcPv9c3gT0KJGSw+EO+x0MNRGEH9StBMIvYWSipKGJlbSqNYGgGxdGOi5q/y22GsI3mWSL+HjTy2nJnLT8DFQX/ZrfsuX5uHwQKBgSWQaEdUJV4Q0EhvkXUKAnt82KC+um4UsrLxCBlJ766BP0jBIDgcpgCwJPRyaQOQRYIGROX3BL0kcgaQLBQrkXHG5NGYTlhe5MqP+iHxodMawCBjI3DknZIP5KhFiGZnXQIykObEcMcVLUsjhqmR7pH6qctigU2loQPgxaZMZ4BUIkXUaWjTK3G1NLioTvQZ///K0FvRwWCJEQ5XuYQGoIsEBIDWeuJbMJJE8gWGwiOZPYKtAZDIl7oH31NctB+AzCQOwkPQmTtp2g3aFZB7RETrrZXDdr0Ed/wHVBZG2EdqSSnle0rI6iLApQJE42BLBlS2LiIEzUvUOdMce7lwXCRCT575lA6giwQEgda64pcwkkXSAMvPqQTYrBLI5D3BPpw08OiSIZE33wwx/1gaBKA8kYtL+nrIzhuAlUh5b8aTCeAp2aENYDkcdB+zuR3ZGeTWCgpER1LQuERJHkcphA/ARYIMTPkEswPoGkCAT6tW6xOEAJmvRUzSIY0vDMzuEcC+EP/0ACJl0YDPolaOmXBv0StG0LshQM/TfdQhVo95LfwYClgU4v6CGXwz4IcR1zBFDicqEiPw89Xp+wUEwrLcGxtnYRHMlptSLPZoNZlmA1m7StEVUR/getfR4+5mj8ecNvkOUEWCBkeQfz60VEIGkCgdI7Wy3O8LaBts+gbTdogZJEACP9N/8QcaBZA/QQynq0xeGnFfTJq2du1LYSwnsZ4cxOWqhlkwi3PDzUMt0Qwquvxu6kSKcYKLTypfUz0dLThyKnE9PLSnC8rR0P7nwf00tL8YUlC2EOOzHSO9H7nmjvwD9v+wN6+JhjRIOTb2IC6SLAAiFd5LneTCKQNIFgszlhMVP2xsEEjuL/66kZR1DQAiWFEzANTdA04LegJXbStx8GrAcUqlmcXNAr0koyma0DpxpEfgdNeYgPtRLyY+trL8d8ioFOL3x+8QJcOa8eFBOBauz09sNtteLAuWZsP3gYd61dCbNJFlkl6R46/tjU3YO/eWUrur3xZ3OMdBDxMcdISfF9TGCQAAsEHg1MICnHHCm1s138o4VWHi4QNGfDwbDIwx0SVahDwycPWBZ0x0RdIGgOi1oAJTLf66miNVM+IMNqsYr+1R0U9VDLutni5VeeiVkgUITGVdOmYOPcOShzu1DqdgtrQSAUwqHmJmzbfwj3XnShEAV0/NFiNiEYCuFURxf+8bU3Rj3qyD4IPB2ZQOYQYIGQOX3BLUkfgQRbECSRsZG2F4Q4GHAv0EMsh2MaiF/zJB709M6DJxM0K0P41MIQqwBtNuinFQbOTeoWCaFCBh0UxdaDLEGWZBGbQBb5GijNc2JCLZNAuH7RAly3aD4cVoq3QF4GkoiH0Nbbi//96uv44eWXCHsIXZMK8uH1+/HOZ8fw8Hsfoj8QOK/HWSCkbxJwzUxgJAEWCDwmmEBCLQgjxEHY4j/0mKMe/0CLZRA+qRD+ST8s4ZL+4R84HxnO6hj2TxjwQRCZIIfnddA7lUz7JEJ0EzvFPtCCJMUfapmCIH1t7UqsmzEdNosFvV6vEAe02dHnD+DlPftw3aIF8IWC6OzrQ1VhIdo9Hrxz5Bi2Hjg0ajyEaAUCbx3w9GUCTIAJMIFkEkiYBYF+3VNKZ3G8cFhyhXDzdY/EsPVAz6sgzhxMED5ZZE0MFzMYZlnzKdDjI2gWCS0GAv2e15JDhX0atPyQCQ21TAJgaU0VzGYTuj1e9Pv9KM1z42R7B17eux8FNrvI6Di7vAx2qxVBJYRT7Z3YeuAg2vo8cVsQWCAkc1pw2UyACTABJpBAgWCG06mndB4SWnngqMLgLoB+7O88/GGfA+085PDtB00ihC0JWqamodmfBsWCEBMkEMJhkCkOgky/7anIxIVatpvNsITrIOsHbWWQM2IgpIgtBGohOTPq91D9IVWBN6hFehx5sQWBJyMTYAJMgAlkEoHkCQTtc645JIa/5XoCpqHxCQYTLIVjHeghEcNmCC16Yjgo0pCQyppYCOdoGBFqWdgQZJNmzQg7M6Yj1HI0Hc0CIRpafC8TYAJMgAkkm0DCBAJ9jJ2OfC14kfZzfag8GBFveeh+A51coCiKYafFIVEUxcaAiIWkbR2I+4SO0O/VytH8GbSqxcmGsEDQIjZSimfNCVLEXhD/plwMqQm1HGkHskCIlBTfxwSYABNgAqkgkDCBQKkfHfawQFCHBDYS33P9+KEmHPTUzgNHFMU9lHGR0kqGoyMKq8OAl+JA0ic9WZNmptcsFFpohWFODlqiJlURiZnImiA0i7A6aFEVt2xlgZCKAcZ1MAEmwASYgDEJJFAgWOGw5w1aCobmXhjhhDh4THHIR113ONQdEsOJlgZPNwwPsjTgnDiQA1pkWxD+B2RhkGVtc4NiEejigTQFiRCyMrwWR6CkZHQ1WxCSQZXLZAJMgAkwgVgJJEQg0AfYbLbBbnOF8yNo6mAgMsGAQNAPOmrWAfHrfyCnwkBWprDfghZmWVMc2n1aWIRBawTFORCXpG1TDDtGSeGSTGYRC4EiKdK2AlkSaJuBRMLWrS/GHCgpVtjjPccCIRlUuUwmwASYABOIlUBCBAJ9eG02F8zCKXDQKXFQJWjHEbX/Jn8D7Z5Bp0X6/+Fgy+HoiFr45LDj4sDb0ZYCZXIcmfVpeKhlup1OMej+CCGKzjiQA4KyOgYGLAjT1m3Ah58dxcnm5lgZJuS5uy65GHdvvFxwamhogN/v17QPBWGSZdTX14M6a/PmzWhsbByI75CQyrkQJsAEmAATYAIjCMQtEMiPgMSBJRzaeGRoZV0IDNgTRBpn/Ze/Zg3QIiSGrQ7CUhCObxB2SNRPMdB9+kUpm3VfBk1LaOGbNYdEGWazRZQtoieGEzeJYEkgJ0YZr7z6HB546CEc84dw7OQpBEeJbpjK0fLNL92C++64nQVCKqFzXUyACTABJjAmgbgEAn2wrVan2F4YcnhhMKhR2M9Q+/iHDzzS1gKFQBaWgsGtAy27wmBUxJEtFlsMw+Ik6Hfrzg5Dkj5IEFkc9ZDNujWC2qEHcnrp5afw/7X3HeB2lVXa67TbckvavQmBQCBADGRAUQhNEAgoCEiRjpVRJPOPZX5mnF/HceYZhSk+jjP+jqOOBWQGf0SlBJKbhChNpCO9hJaQBEgj9bZT/uddZe997r1J9jnnlnPuXccHk5yzy7fXLt+713rX+7744ov09LPP8pv5aH8+cMKJdOqpCxwgjPaJ8P17BDwCHgGPAEegbICAybqubgJ7L8jMbkJGVmQI2xxDLoF1G2DuVv8Fa0FUrQMxcpISgnQ/qM9CIC6E38EjUBnloBJhZQwRU+Jsg3ZToASSy/VpZqGOuxgAELCcZBhG/9Pe3k777ruvA4TRPxU+Ao+AR8Aj4BGoFCBAWhmp/AFlhX5CgfZPyTKog5OBCp3gg2WMuKi/G5Cw/AK3KfYTahSAEkotByUHreEHICCRYPtlfO6481f08MMP0+MPPBChU47eNfGhs86ks889zwHC6J0C37NHwCPgEfAIRCJQUQahsRHeCxGAoDN3kRiiTr8KDSJZAcgU5GRiZ7Gj/oTEiB6C+TVgI8HGJQshOMJIj7Id/p/iEM4/WAcECyghA5GkO+/8Fd34s5/RJc1p2qujQ8cxetdG3fuOpknHHO8AYfROge/ZI+AR8Ah4BIYGICSpqalVRIh4npZCQsg10Lk8+ksUBJjNI2sThEqKJnpkBk68XdYykHKDkRGjaQvzaZBRyP+hxIDWRgEg8jGFRXy/eMktDBC+cMAM6lizmnJvrB7VCyN//sXUeN7FDhBG9Sz4zj0CHgGPgEfAIlBBBgEAoU1q/fyWHvFdkNlYPkwniLzpa4ciL2K8BZZQ1iyAfi8AAUupI2PAQWBygko5yzZsWZFaRktjaM4kRk2hY1RdpoH5CCgxMECYvTdN/ePj1Pvk46VdFfB6mDSJqF45GHtau7eXcps2EXH3xcBP8srPU9MVVzlA2FMc/XePgEfAI+ARGJEIlA0QAAyamiYGpYFQ2TBoXSiiG5gscjhZy/Hx5G5YIgICpBVSCIdBW6QBEW1nNB+G4m2GegthxiH0bkin6xhcLLrjlxUBhOSkydR2zbcpMRXliT2fq/xrr9D2b11D2TfXOkDYc7h8iWGMwGBuonvanduL7ylC/rtHYOgiUC33aNkAQcyZWqAwYA0MEfJg6JEQDVng7MjIwLIOIaBgGSRtfbTf0YlQ5LMQ4RuYZLOUH7QNMmAwKq2RAYh4MGC5FNofqVBxBiE5eQpN/PZ/ULJjeiyAkHt5JW375t9Sdt0aBwhDdx/5lsqIQLU8fMoYuq/iERgXEaiWe7RsgIA38YaG5kE5ByZYVAQOir2UAkVEbkkMMgKKHCynwExDZRto62N025BRFlXFqLRzWE7grXGrZC7IRADYAKhUmkFIpFKUnD6DEnV1sQBCoauHcuvfIsr2OUAYF7d49R5ktTx8qjdCPjKPwOhGoFru0bIBQiZTzwqKolsQCSZP6PjC9AXsTV75CCq1bDLLPIlbVkDVEYOtBW6OauvMP0hGwFoZA9lllWZWweaIH1Qo8wxAAYCAbEKlHIREUxM1nnkuJSZOjBAudn1RFda/Td3Ll1B+21YHCKN77437vVfLw2fcnwgPgEdgFxGolnu0bIBQX9/IKopFLY0KFOSFPqJsaEEwHwZpVQgEjYLlVXFR1o2QEVEeSKZUrVHJjAPAhIAHAQjCXbBv2OWROQ0J9osYCoCQau+gSTfeSgmUGGJ88i8+T1uuXkjZ1151gBAjXr7I8EWgWh4+w3eEvmWPQG1HoFru0SECCCI6oPO+Zfy1uyCUQg60DoIWx1AeKfBiVAED5gxwC6VJJUaMmqzuEHQnhGpLASwJsg9yoaDMAD4DMgj47/ZFN1VEUuQMwhkfoUTbxHglhvXrqXvFUs8g1PZ9OyZGXy0PnzERTD8Ij8AwRKBa7tEyAUKCGhsmUNpklgMdhKgigWQRTM8gdFpQjoAKGhVbNUcrA2bznGNfBRFViogjcWlDgUkhR8kUzJmkuMEiz6p/IFgEksrwfgAnIc3aDXfccXNlAAEchBn7CAchxqfQ3UO5t9Y5ByFGrHyR4Y1AtTx8hvcofesegdqNQLXco+UDhMZmSqeEoLcr5cTo6Qlf6CMggl/3o9bNJq4k5QVxcQz1EqKCTFJKCF/emYwIXwU1gxK3x9AjwpYEuRJgwZQUy9VB4C6Gf/1PSnZMi5VByL+8kraii2HtG4Neta6DULs3c62NvFoePrUWNx+vR2CkIlAt92hZAAFZAVZRTKSYkBi1WAibFaLTt7zRFwka5bKijmhbUNEkm23F8lkBAhsvmeCS6TlrpsBAgGkoBEhEShJ5lBaCjIKUGAAk7lz864oyCKyD8I1vxdZByL32Cu349rWUfXOdA4SRust8P4NGoFoePn56PAIegcEjUC33aNkAYUJTKyUSMD5SZqJlEiLSyvoKH77IR+QVJQCyUgJZBFM/VB+FsLMBIEGXNSTCWyzKH4R+C6qsaGFHJiGgKyZEZyHqxVBuBoFSKUpP34uooSmwut7dxZ7v2kk5gINdWEt7BsEfFSMVgWp5+IzU8fp+PAK1FoFquUfLAAgJymTq2OqZJ1v7cOqguDQwECCENs8GEALxpCi/gDcrSooB4zG6nwAfGLNBsg1FZQY0WkJ2GSAmAixEc4Fo8ZLfVJRBSLS0UPMVV1ESSooxPvm1q2nnjT+n3OZNnkGIES9fZPgiUC0Pn+E7Qt+yR6C2I1At92iJAMHAQRNBUyC0OAjTB4Fasr7hR0mKmMBhvSzcQskAyNwd6YIoyg5YZ4R6L6gaYpAd6JdtwPds0MRbxX8oL0h7ozEfMnWNlMv2VlxiSE1tp4k/+QUl22MChJUv0JavXk3ZVa85QKjte7fmR18tD5+aD6QfgEdgmCJQLfdoCQAhAg6UExAABA2StSoGL/uKGyyTIDhAJJEDjwVlOFpApASQYJ6AiCCpGRO0DPC/ZEozA+LuKPhCsw2cWYAzZIKJiJJ9ECBj+6ura+BtV6qkCJOmhqOOoURrW6xLJP/OJup99GEqdHc7QIgVMV9ouCJQLQ+f4To+365HoNYjUC33aGyAgFbDxoaWwL0x6taICT8fpg500pZTFB7oQEejwACmH8FQqhXF2gakJQTZpgofKYmREUCQlQi5CeAfoK0xMIpKgKSIdsh8xV0MwUH201vY5YWJ4+kXo+iyzkGo9Vvax+8R8Ah4BMZWBGIDBPNeiHIGLDMQAoFwcrZ5s1hVsVhdMWrVDABgttCcFTCdA4t3ABis7NCvXZLyDFIYdJgQE5cgpP1RbJ+JNRCwTKU6CMFlgO6M+joq9PaiviFfJ5OUSKUJREbeN/tQ56jQN7gPA6/ids9j687yo/EIeAQ8AjUegdgAAal5SCvz1G2TMM/k5nUQFSey1L9M9f3TJea+KKuHZMR8Ia/GTWg0UB5BMNmrNXRe1RfVyMmaHyMSS0Tc2shOTYF4Eu8HGYRkRt0cKxNKSra2UaKllZItLdR0xtnUfc8Kyq1bR/nuLkq1tlHmiPdRevZBlF+3hhJNEyj7/HPUdd/dRDlwJAZ+HCDU+J3kw/cIeAQ8AmMsArEAQjKZKsCcKQAI/YIQCCYXuTLat7awGi4FCofQKZCMQv/MgfAFjGjIUogBMOGMRAHZAigjSlYg+MiPITCIjEdIlUlKp8BhqFAHIZmkhvd/gJou/zQl996HeQiFri7Kr11DPUtup/y2LTThqi9RYmo7FXbuIOruotwLz1Hvg/dT97JOym1Yr22a4dAdIIyxO8sPxyPgEfAI1HgEYgGEpqbWQiKRoVQKugeqfBidlwcEAWZJ0pwgH2Qd5M+w5GDzvrQo2vJWwhAyoogcFXU7YDPwfQD/wMSV1AdCtg9pZmQOlNyodX/rukinMrzeokW/LL/NMZmk+iOPptavX0M0pZ2or48K2RzRtq3Udd0PWO+g5e/+iYhVFhNEvb2Uf+VF6nvwAdr+w/9L+a1bBkTMAUKN30k+fI+AR8AjMMYiEAsgTJgwuZBMaqugpfZDyUQVIip6lY/8Q0sSAWExNGgyFsHA7gfzYZCWxO3+mQAAIABJREFUSFNRNKdGwQihzwMbMZlugjU5Mucg1ElA+QL/AtkSaooVdTEAILx3PjWccTbVnfZhyWi8upJ67v0tZV9+idIzZ1HjZ/6MqLGJaOd2Bg+JQp62/9u/UNftvx5ULMkBwhi7s/xwPAIeAY9AjUcgNkBIKSdAHBs1tR+8ufOUHXFGCEEA5w2K2h01I6DpBeEnRMmNWDhkFjCRkdsboaGQ02yDbN+yEaHqIroWkD2w7EWYuRDFxiSlMw3MUVhUiVlTIkGZg+dSyxf+klJHHEVUX0e0Ywd13/AT2n7dj6juiCOp9R+/Q9Q6kfJvrCbq7eYyxLavXk09D94/aDeDA4Qav5N8+B4Bj4BHYIxFIDZAQNo+dGQ0LCDfmGeCxEaXGgAK+v9moEB5CJoRGLT1kWkFVoqQ8gVDiCJwId8DxxingVUUleTIXhCUoFS6jssQd95ZvhdDIp2hhg+eTo3nXcwcBKpvIMpmqe/e31LPfXczq2LCl/+WqKmZSDkI+Xc2M1hAiYHFkvq1PDpAGGN3lh+OR8Aj4BGo8QjEBwhqthTBAHroYReDxSJ4o9eJPAoc5O/RDEO/7IG6N4YgIEfJBCyaJWuRQxeAah4Id8GyCWL1DCKi7N+AhNAg+btEklKsi0AVKSkm0nXUcPICSs87jLLPP0vZZ56i1D4zuXOhsH075V5dSam58yj79JOUmXcY9T37NOXeWEWZeYdT7+OPUnb16w4QavzG8eF7BDwCHoGxHoH4AAEZhIB/sDtpZYUAQRNDWFII3/jDbIKABWzb1lPdgIhMI3gDtm/2V9AyAtbN5fqEtBiADgESVtYAiID2gX0Hh0cQIBdX6OZIqbR6P+SIcnlJXaRSMmroIQDQwJgJ+zZVR/57njkL/T+eQRjrt5ofn0fAI+ARqK0IxAIIzROmFPgNPkJMjOYBLCtgds42GfMy/bodB+cjgDegwIAnz7D1EWWBJCZjglpj2NVgoACgA9wEWE9TQsoOXPKItFEAFAAxYHwoNGBISzpvLb+LYRjOsQOEYQiqb9Ij4BHwCHgEyo5ALIDQ1NRWSKchMCQEwhAcDKacWExQtFyBFgIiREYRPhIQEb5RMyFRpZtD1UYIHCUDKiN0DFg+OSlKhQIcRB/BJJoBGgLOhGYnwEPIZBor5iCUHe3drOgAYTii6tv0CHgEPAIegXIjEB8gQD8g8DyI5g9CUqJM9tGUQcSOmaf3KDFRygrRsoNlIAKHRz4qFVjSfSNTkM31BnwDWV+AgQENAIG8KRZqFwQDikSKIPjEXgyLK7N7Ljfgu1rPAcJQR9S35xHwCHgEPAKVRKAigBAtKYSD6FdTgGARdyAYQDBgEAUZmk1gPyMtNUTaINPpNOVzqpyYSDDvQISPpLMBByEAQOyk5SOgAfwD5iGokiI0EPDvJUu8xFDJhePregQ8Ah4Bj8DYjkBJAME0DUULQQITJgyKdRCC8kCQdRBugXkvDNQ/SAYKiaKyrP+mAsEoivcFC2jejYCBbFYyCWYBzdtkwqKBBNFBEDqCkCzZrIkStHjJLcxB+PwBe1Pb449Qz9N/HNUznfnc56n1ioUMap566inqhfmTdnSA/zF37lwGQgsXLqQ1a9YE5ZlRHbTv3CPgEfAIeATGbARiAYQJEyYVUngTF49FKRQEAGFgSSFqrywgQrIHYtKEdU3DgKdAtWOOkiDDbYrJkuwvb0ZNAhdku1paCHgIhH1kiVhqWcEBVCBZByHJhEesA5Li//z0p3RJSx09dffvaP26daN6kud/8Wo6/n990QHCqJ4F37lHwCPgEfAIWARiAYSWlvaCSR7L1Nz/E80eSFohmgUwNFHc5hg4LISyyYH+kjo8yjs0lwtMvdFMnKRzAS2LkmmAPoJJNhfyfZRTkqIAElFiBAcBQAfrdi69nX79y1/S6yuW0TsbN/Lyo/m55PNfpMs+7wDBzkF/B9A9nZtAYGtPC/rvHgGPwJBEwO/RIQljVW8kFkBobW0PmxACgFBcUpCjLCYl2r/ClaOaCPBG0NSASSsz/0C4BaaAGNpLhw0QrDNg5QK1iy5ggucygrRMsqAS5Zi7YACFlRRTaYIvQ2fn7dTV1UXbt2+vihO077770pw5czyDMIDoGu/0OECIFydfyiMwVBEoFSDwDBE6+A3VMHw7wxiBkgCCqhZHRIlCYQSZmAUKmKJhKIccHoEJHoEnEAAE/Vm2gTd5ITVatkCyF5IfMPVE1OWZT4B1mJgo4ELaHMFXKFA+It/MXQ6Bl0Oeli1fTD09PQwSquGz995700EHHeQAwQFCNVyOPgaPwB4j4ABhjyGq+QVKAgi710CwToXQxtkm9cHMmOQ7NlkIRI2kK0KAg+kZhGRHTPgh+dDQaJIFkEQ9kfUU8/lAaZFBRsByEM4COiCwj+V3LaFbb72NHn74j5Spyyi7YvTO5wUXnEuXXHKhAwQHCKN3EfqePQIlRMABQgnBqtFF4wGEFi0xSGqgn0mSVQT6iyZZFkD4BEYoNNIhT+hWUtDsAHMFIikoLhto2QKTv4EFIUkKmEhCJdGsqJFH0FJDyJQAqDAQAvXjPs4kLL+rk66//ud0+Ls/SJMmTSXYWY/m54D9p9Ihh8x0gOAAYTQvQ9+3RyB2BBwgxA5VzS5YEkAwEmCx2dLAY2dZZu4uGEhnLFq6yPI5tGi27ABP9hGqg/U7yO+wO4AEM1E21xeUF4J9W06Bswgir4wyBJMZC3m6SwHC0cd8hDZuzNLatZtLPIkJqqtPUWtLE6VSan+9iy1kc3natnUn9fbheAaPyYknHEwLFvyJAwQHCCVeh764R2B0IrDH5/sgw3IOwuicq3L3GhsghGZIkkXor4MQ9VjAJC2djSKJHPQpMhlR2hzlLwAS+SgGCI9D6Q1GcAQ3wTwVuDKRIEpn6jmTkMuig0F4Ctg3lyKYiyCiTAAaprQo5EWiu+5awhmEo485h95+u4dWrd5UUgwzmTSdumAeHXbYvpROixnU4J8C5bJ5eurp1dS59Cnq65P99/+cctIc+uAHD3eA4AChpOvQF/YIjFYEHCCMVuRHbr+xAALaHPtnDUJAYK/4JqMUEUnAtC3KRqFwgh6bkBCl4wAftCxG2yANkMjbv751B7sShICOBG6CxG7Q1siWzqK7EGyfvRqy3OKIfeXh/kgJumuFlBjKBQjNzfX0F1/6MNXXpen1VRsoB0fHQT7pVJL2228qbX5nJ/34J7+jTZsG75pwgBAGzx88I/cA8D15BMqNgN+n5UaudtYrESAIR6D4wihOmffnCUipIUeJpAgUqUCCZBGMX8BdCDK5i6BSIiKZrJM/dyzIvvEfygvIPrD1M8CBdjRItkDkmkFgxMTN/AUFI7CLBpGxUoDQ0txAX/6rs2n16o30i5seoJ4eAI+Bn4aGOrr04mOora2J/uvHv6P1G7Z6BmEP94c/eGrnAeIjHb8R8Pt07J/7EgBCKE+AsBQDBQMJEaVFWSisuQ+ibWB4ISAj8uIKFiz2TGCUboRQfhn8AwAG/jLgGMi6MpZ0up73beUFdn5EBiGfpVyul5Yvr6zEYADhtdfW0w3/cx91dw8OEJqa6uhjl7+fJk+a4AAh5v3kD56YgfLFPAKjGAG/T0cx+CO069gAYffSyjLaoA+AwYC0HbKqok7mrH6YTPOkbZ4MvKIJLKCcwCJI4dELp88ASAgUuOOBZZVV/yAoZwj3AOUHU1iEWRRcII2HgD8htVxJicEAwhtvbKSbbv4D9ewCIDQ21tFFFx1DrS2NDhBiXtT+4IkZKF/MIzCKEfD7dBSDP0K7jg0Qdjcek2EOWhGjallKFgytmMOsghAWzfEJXAOYMYFgGMINe/Pvr6VgpksmnITfo8JIKZQguO1RAIdhDiMzwqypUoDw118+mwmK6958h/K74CCk0kmaPm0ivfPODgcIMS9qf/DEDJQv5hEYxQj4fTqKwR+hXZcAEKIyySpyZNLK1q4IkSJzYozU/e1NH2sJGVGkknlyB8OQOYySdWBCITIDkQqF6SMI8VAFnDmDIDJIIqBUTGRkAaVkmgQoFLgVEn8ig4FOhiVDBBDq69O0+Z0d1NbaRPX1GdqwYRul00maOLGZdu7spu3bu2nSpAm0ceN2BwgxL2p/8MQMlC/mERjFCPh9OorBH6FdlwwQZFwRcQITMAr4BsXqiJwLMGJjQDoQgGEtjFJlUNBRkI4HIxoKcNBtBqqIxSJLRSkCDRyACJcauOUSAAGdDKK6iKxCZ2flGQSQFNet20y33PYIffDUw2j27Gn00+vuYb7BBR+dT3948CW6//cv0kfPn08oSThJcYSuat+NR8Aj4BHwCFQcgRIBQiT1H9EpCCygmUeY4q4Cm+Q5Y2DDDAiHA1sXxU8h6hQpksvoUuAyAd7+E6lIu6TCC5Vmtu4IAxNpNWUKswwACCrJDA7CEGQQABC6u3vp4UdeYT2EaR2tdPc9z1NzcwMd+b4D6K4VT9Pv7n6eLr/sOCcpVnyp+gY8Ah4Bj4BHYCQjUDZAsHZEKqhKYSFLlLBWRGkzDN78Q5enoLMh2q1gZEbLKpgfAyb9UCsBBEVkBaRlMWiRtDZKFl0SiJFMZSiVyrByooAL1WBUrQV0MnR23jYEHISP0IQJddzBgFJDKpWiru5ebq9EuaFz6R8dIIzk1VyD+/I0bQ2eNB/yuIrAeL5HSwQIZuAsJQG83ff/WDADgKDFBJ7UC8STKD6maAgQYK2Ilj8Q8CAqiEG3g5Yn8Af7JqAUwZKKICJGuhyYmwCVxQbpWsgr8bFI1jlHnZ2LKgYIyCBs3bqT7r7nOTp6/kE0Y8YkumPxE9Ta0kAnn3QI3bXiGQcI4+pRUvrBjueHT+nR8jU8AiMfgfF8j8YGCFHdA2k8iIofSemBkwY2WauMsokecf1fLZqZjJjXlL8mGljAKPApgBiSSjUrGTG0hxZQIgqK2i7JvAUTVNKiAnwa2ApaFBZR+hBQIjLMnUvvqBgg/NVfnU1vv/UO3XLrI3TaaYfR7AOm0c+uFw7CR88/ih586GX6/QMv0fnnHsmZhh/9+G7a4EJJI3+HV/Eex/PDp4pPiw/NIxBEYDzfoxUABKgYpsSUScGBgAjzYNBpPIG3eOk+MIBgb/W8vAgm8Dby+V5RSVSugZg1RVUWtXMhcJWM2j8LqEByAcCAtReYw2Dqi2ELJcaxZEllOggTmurpqqtOpenT26i3J0t1dSgxJJmTgP03NKSpry/H3gsoN0CO+brr76EtW7oGvfVcanl8PpHG88NnfJ5xP+pai8B4vkdjA4QofVCyBfIfT+JmxMzcABFHCqycg6tB3vLZbVGXR+BFNAlfpTirwB8GDOLkaPsIwAcbMGmXQ0BqDP9tvAW0N/KJVflmIzpi8oaGwuLFv6kogwAwMPuADjr88P2ooR58h11/wFF44slV9PLLb0bKIcXLO0CotcfG0Ix3PD98hiaCvhWPwPBGYDzfoyUCBDNcVvMlzh70FzsK6IP9TJpkEkdXA/skJFOsTVAAKAjIiCEgQAkDmYQkGzIJ8MhBy0AnfFFFtHZL2baVObBtbnPkUoi4RZp6I2cXEomKuxiwbXAhoHlg/hO7ukwRpWwWhMli34ro8g4Qhvcmr9atj+eHT7WeEx+XRyAagfF8j8YECFNF21A1BDAxFosfqYGT6h1ElJJ1QpfSQDTdD8GibLZXdApU8AhgAcAA8z53IZhjoxktQcuAMxAGGJC9QOkAfwIMWLdCggWS2MUBAIFHb8RHGV2lXQwAGVBRRPYDhlCZdIqVHHt7wa0gamys5w4KAIPGhjrasbOnyICq/y3oAGF8PpTG88NnfJ5xP+pai8B4vkdLAgj2xo4yQZH4EZ9x6ypQeBAtM+hPqXSGQUYui0yALIdtYRLHQMRfAWWLLL/14zcACS4z5ITEaCZNmPStPZIJkwkDBOIeKdwI+1j3hSk2FGjpsvJJihjPzJmT6Yj37M/lhedfXEv7q6Xzvfe9wMqJHz1vPh8XgMGMGZPp5ZVv0Vtvb6FHHn1lUGMnBwi19tgYmvGO54fP0ETQt+IRGN4IjOd7NDZACIOE8oDyCLhzwGSOJYvAbYnqfYA3aJNGFv6BTPbCPchLu6L6JViJANsWXoMwFaTEEDRAypWg3AKAAnFnzBKEkYKfEsTZCVFxDi2m7TJC+aFzafk6COAfnHTSIXTC8XMok0nRa69tpJaWBlq7bjN1Ln2S5hy8F53+ocOZuAiCIsiKW7d20a9+/RA9/8LaQUsNDhCG9yav1q2P54dPtZ4TH5dHIBqB8XyPxgIIzc1TIsVzaWcs0icIrJAilkjCPORlQ/dGlV1WV0fTQECnwoDqvNILGCRwxiLFfwIMyPakKyLgIahKowg4oaWxl2GFlEKiss4oP6QqcnPEvvef1U4nnvAuamltoO7uLO07cwrt7Oqlhx9+mZ744+t05oePoIMPnq4dHER92Tz993/fRy+8+Oagd58DhPH5UBrPD5/xecb9qGstAuP5Hi0ZIJj8MSf42WoZ8zCyBmK2xOUAlj829qL5JoS/S5ZBqH25fE6zEFG/6KjdA6yatRyRQutgj/AZGKUIF0E6HUIpZSt3gOQIMAD4gbIGlx6YpIg2x/K9GLC/uXNn0JlnvIdllR96+BXaZ5/JtHHDNhZKQlzOP28+zTt0HwVTCerpzdINNwAgrNsjQHj66aepp6dHsihM6EzS3LlzuQyzcOFCWrNmTZiZqbW7zcdbFIHx/PDxS8EjUAsRGM/3aGyAYEGSt/lQrEjUjU2rQECA1QSiZkzWFhm0P0be6plPAB6BGjiFbo4JSqfq+DeIIiUTGc4eQI1RHBxDCWVrlwzcISlJ6UydlCus48EcIBNEd9xxc9ltjjgWTP4nnXQotU9toWeefYNaWxrp7fVbadEdj9GBs6fRGacfQfvsM4myWYw3SV1dvfTII6/S0uVP0s6dyG4UfyyDgG2/9NJLtGXLFi3ZQLa5nubMmUO9vb0OEGrhiVLCGMfzw6eEMPmiHoFRi8B4vkdLBAhCEpQ3W5NZhhASUv7yPcsmRUyRDDGIu6KACdFSUvdGLUVw94JyFrirAVmIZJLq6pp4gmcdA61gmDojJn8hLUqbo0k2s9Uz9A5S0EKQ72XcAiiQbViypHwOggGEk08+lDMIzz+/lhobMrRp8w7qXPoUTZ/eSqedehiTFR96aCXtv38HrV61kV5c+Sa99dYW7nrYFUAA+Nm6dSutWrWKswjpdJra29tpr732om3btjlAGLXHxPDsuNSHT8DpGZ7h+FY9Ah6BfhEo9R61zO9YCGQJAEFAgLkzcoEgZA9KCyNP4toxYC2P+FO/l7KDkhADESO0Ico60o2Q0jdnXpjS6bqg3mDkRVk4ylvAaArcZii7F4CA8kIAWrAEZx3ER2JxBSUGbKOpqZ4mtjUx0RLcg3QqQdlcnjZv3sEtjh0dLbRjRy9t3bKTWlobqburjzsadnWxWQYBgADLABwYQGhsbOQyA7IKXmIYC7edH4NHwCPgEaj+CMQDCBMmFULegIkkWbYgdFyMqiea8qH4M2AyZ0FmJSNGKIkBudAmdlFnRBYAa+CNmlsfCwV1aFQ+AesaGEIpUl4IvmdRpkA0SVQbUZpAN8Wdd/6q7BLDcJzWKECIbt/eGAEaHCAMR+R9mx4Bj4BHwCMwWARiAYTWFhFK4pd+bk2U/8SWWcmIgaqi2TxHJu0oCDCOgrzaq5aBAAgRQMIH25UMBQsmFaQbwkiJ6FAQc0c4RAbtDrIqj1G0FWQb4grJgkngIwwBSXE4LiUHCMMRVd9mtURgPKdpq+Uc+Dg8AruLwGD3KEr7AAn9PyIUKNICibbWaQWRNlZdg0j5IDBrCvQGQhdGdWgO2hNEJVEmblFPVNto7ogQvQLWUuC9ysQOgCD6CqrWGJQWJHsg5EYFLfyV5CpS0E9IJLjdMUFhqQHfI5NQqVnTUF9qDhCGOqK+vWqKgAOEajobPhaPwMAIlA0QWlvaB5EpMDKivsHrBF8kqYwWRm19tMwD6xOIcLMSGsUBUkCA+SuIUiPzCFIpffMHl0GHEUlOiAlTmC0QgFCgdLqe0umMWDyDe8DcBnQU4Lu+is2ahvoCc4Aw1BH17VVTBBwgVNPZ8LF4BIYSILR2mCcz1/TF+yDUILBMQZjClzKDZQXABWD1RXV/FNKilAGwjnkmBEMGaTEhACSdQmuj+C2IvDIsnYUHYSUO0V2Q8bA0EngHSYCLNK9g3Q1af+Auhkq9GIb6AnOAMNQR9e1VUwQcIFTT2fCxeASGEiBYBiFi56yFfeUFSPNCHrUKnrvDckAimQ7S/SKxLCqIABjacMA+CzzhczaAmEgI4CCSzvi3HIx1KIT5ByM+inCSgIgCgwqAiSSyD9w+aQkQ4TUAWHR23s4kxaPmn0WrVr1Db7yxYVSvmdNOO4zO/PBRQV3HBuMkxVE9Lb7zIYqAA4QhCqRvxiMwTBGooMSgGQRh+wVaSDJOZgUa4zCUTOa0gkgdY6JGNsAyBvx3YyYoSshle3k71pqIrgWABAgkhZ7SYuZkk7zWL7St0doYBQyY7wNPsAwWhFCRzfZRPt9Hy5bdST/72XWUqZtBzz77Am3fvn2Ywh5vs5/4xHn06U9d6AAhXrh8qRqLgAOEGjthPtxxF4GyAUJb27SCGS/JRkz+WIiFkhVA/l+Jg/28GUy4KBR5Ec0CAAYTMDLTJ/ybVRJ5NwnKZrsjnQqhv4OMQ2sOCj4Ev0hpQsoMACbIIgi5UlwjezlTsWz5YlqxYgUtXtxJPT0DlQ1H+ur45Cc/Tp/+9KccIIx04H1/IxIBBwgjEmbfiUeg7AiUDRBAUgzaG3lilzKC4QDROVBVAhU70txCABXYeyEBoyRRN8zls3wgJozEts/chqjlCW17zOV6tPQAc6ZI5wMrN9pYpGzAZQs1kmIPA1V3DDMOKFeIZwNKDGjf6OvrKzugQ7nitGnTaP/993eAMJRB9W1VTQQcIFTNqfCBeAQGjUDZAKGlpb1gfABsmTMGKrfMmQWoKIpSAr/Bm9qiAAApS/AbPBGXEPqyaD0U10UpT6DRIMsUQ57UTUpBRJnFjREgRJyhgrZHXi/aAsmlBZFUNpMjTjIE8s7Cf8BWly5dxPvty4pXw2h/2jvaadZ++zlAGO0T4fsflgg4QBiWsPpGPQJDFoEKAMJUJh5AgEgmZZQApBPBPip2rH4KUXfHJKXSGX6zz/b1MhfAJJPRZcCTdzA/W5ujAAtzbcQbP1oT8ZH1pavBWhztwBiYWOkilWawwf9W/wXsCADCAEJXVw9958e30zubNw9ZkMvd0GUXfIg+fvFZDhDKDaCvV9URcIBQ1afHB+cRGNQGIJZQUpEOQuC/gDdxNVhCrd+8GG2218wBkEEmU8/hz+dUcln5AJjAMfFz5oDbJ81jQTIO0CzgN36oOeWzPOEbSBHTJe16YKtnISOC24A2RpZZ5myBFD+stZK5EpTgDMK27TvpE1/4Fr29pY8KSXg+jN7nb/78o/R//vwSBwijdwp8z8MYAQcIwxhc37RHYAgiUHYGAUqK4qAobYRBf2LYsxDYPHOJgaWOpYMBnQxMFuTiALaBSZ3z/lpKCFsQRQhR5ZCxtqohMkDIZbkbQsoV2L4YO6HLgVsiASYQJJhB5bL6vXlAiCwz9o/1MB4DCJ/8/L/Qmz1tRA1ThyDE5W/ia59ZQH/9uQ85QCg/hL5mFUfAAUIVnxwfmkdAy/X9AxE7g2DaBvJGPsgnkjngyZi5CSamJJoHeegRJGC6VCeZA3VX5EmfuQNWYhDvBetGsNZK/l1tnwEODLSIuVNo+2xER7ROmu6CbF+kmLHe0mV3cAYhBAjtJV0k2EZ9JkUpLbvsaWXEracvN6jVM9b92mdPob++0gHCnuLov9dmBBwg1OZ581GPrwj0v09jAYQWNmsyfWN9+zfvBVY9DD0VRCGR39WVhKimSoEjg6ggiuES2g914hZqoczh+v+swMhZA3gyCPcgC6lmJiNCDAlcBMlYoKzAGQV4LyhRUfYhW8O2hWiZpFy+l5YvX1I2QAB4OXBmO11x3jG0395TVPhp9xcSrJ5vWvwYLX/ohUFBggOE8XUj+tF6BDwCHoFqj0AsN8eW5qlM9WOJY1U6jIoUsReCEgLF3llUD6UV0uygpbuBNQ4sC6EyBvbv0A5awiadCKJjgPbIHIST8iArgl9gBEkBAPlcH4sjiXCTdFUALEjSQMoSDBwKeeYpLF9+Z9kAIZ1K0jVfOIuuuuxE2tnVQ+s3baeZe02ixoZd8xiQPfnjc2/Qhz/3H7ThnR0DrovhBgi19AZXS2Ot9hvcx1c7Eai1677Wxls7V0L1jDQWQGhunlwIJ2R5x5dOBJmkxYnZeAEoL8iXAAQMEMwaGjwGLSsYqVAAB/gEsG4O5RUDcJDHhJ6ldLqOslkxXhJVRLGHBngQbgS4BeAhcDGDtynfC3gBeDApZhhAdXYKSbGcEkMmnaKfXfMxOu34ufTFb95MDzzxCl39qVPo0xccS3UZUWwc7PPWhm10xLnX0rqNWx0g7OYe8AdP9TwgfCQjF4Fau+5rbbwjdybHzp5iAQQpMQgwEN6AlRuE9GcCRaY/YNoE0qoo4kU8katCIlsq6W/6/q9aBEJqNE4CuApi2YysQVjikKxC1NdBQAGbObFok3QyhCUI5SeAF4H9DkpSjM9BMIBw5Lz96NKrf0pPvrSWLj3jvfTdr11IE5qkY2NnVy8t//3zNOeAaXTgfh2USiYIAOG9515Lax0g7PYO8gfP2HnA+JHEj0CtXfe1Nt74Z8KXtAjEBwj8dh9mDqTujy9DZ0cRKbImB+lYCNoNVayof+gFTAB7qDKjAhAkFFIpTLYi4WyZB2QQkK0QLQThHwAZIFsghERzjQQJUoCIajwGpQaMYfnyxRVnED6y4DD64Y330d2PrKQ/v/y4JLReAAAfg0lEQVQDdOJRB1IqlaRtO3rof259iP7hB0voXbM66N+/diG9a/Z0Wr9xuwOEGPeeP3hiBMkXGXMRqLXrvtbGO+YumBE4oNgAgQWHlHxY1MdgXs+qhACSIrgK4TJB3WCQw5FJXjoSpONBPB/k79BB4MxAXhweeaumvKilisCtUbsehI4IcIJWR+M7aJOlaiUAYMCsqdISwyVnvo96erO08rX1tGVbF7133kzKFQoMGq75YSdt3LqD0qkUffC4ufRvX7mAGhsy9L7z/tEzCHu4sP3BMwJ3vu+i6iJQa9d9rY236k54DQwoFkAAB8EUD1XtmNP41nWASRsCRLBVxuQbvrVbBALtZKtUSOcDv/HjKxAIwSeQEoF5LnA5gLkJIrkM62h8oIlQgKcCgfQods6imaDlDBVWsjZKU3kUHoIQFpdV0OZoJYaLPvxeemX1Rvrad26jx55ZTV+96kP0ztYuuvaHnfTWpm3B6Z/U3Eg/+ebldOThs+io8//JAYIDhBp4NPgQRzoCtTbh1tp4R/p8joX9xQMIEyYxQOC3d7V7NkahEBSFEyDgIRRSihIbA66CMRHV5rn/9iRJIHwDITmKhoIiCQYQIC2y9gEAg4IHy1gYKABo4KyDKT/CeppbMMWvYSgAwqnHvYv+4ppf0U3LHqe+vhy1T2ym7t4+2razu8jeoXVCA/3kHy6jo99zAB31UQcIe7px/MGzpwj572MxArV23dfaeMfiNTPcxxQLIDBJUev8PCDVPQiUC7TOnwxMm4SUaJwEay0smuj196gPg3Qoalskax1IZ4N1SPDkjlZJ7qCQrIFxHGAAJR/IKueCLgbBFsJDANTIadnhrrs6Kyox/PSbl9NJ8+fQ1//9dnr+1bd2e54mNNbRl//0NDp4/2kOEGJc0f7giREkX2TMRaDWrvtaG++Yu2BG4IBiAYS2tukstQxlQnFGVBEkbjiANLIQCUXOWKdpc4PW5gMuH0TJC0w2NAKhog4VNBL9BHAZoL4onQfMgbDuB+UopNP1gTmTZBTQzpgKJKHN4ElkmYXYyC2QuTzdtaJ8gAAdhG98/iz6M+ggdPdw9mB3H3AyWpob6JmX3qQzr3IdhD1d1/7g2VOE/PexGIFau+5rbbxj8ZoZ7mOKBxBaO4SeCG2BXJ/wDDjxL9oHgWSyvqkHGgeBKZORFkW3IChPqPCSAQDjNEQBAjAF9mlURwMnyC6kknVixqTOjpyxULoDsghCaBSdBLGRFkACr4bOpbeVnUHA+ObMmkYXn34ETZ/aatWP3Z6rru4sLbnvWVr+4AuUhcV0v48LJYUB8QfPcN/2vv1qjECtXfe1Nt5qPOfVPqbYAMEklIVLIBkDtDhyVoCNnLTLgA2adKrXN38JgmQdeH3mKYjIklgZmOCSZgq4/ADCobg3AiDgY10J1vWQThlACM2cWBhJtRdAakQWgVUWQWLk/Ug3xuIlt5QNEDjfoUqRAVEzxpmGguOubioHCA4QYlxCvsgYjkCtTbi1Nt4xfOkM26HFAgit4CCox4LM9SKWBLKgEBHNpRGTs8gr8ySqHo5muRyVWDZHSOMlcAeCWkYLiBDyY8Ax1G2apgFzCvC7gRFVa8QkDADCHg48VHN0RAlEHSmpQEuW3FoRQBjqM+IAwQHCUF9Tvr3aikCtTbi1Nt7auhqqY7SxAEJL85RC2IaYZRIgJfFGzsoFVOBsQl4zAzIRh14NVlFQKWZTRDRhRH4bx2QeGjdxGUIdHq37QYyWFHho6QL/Eq2EBJs55fJZyjJZUf4dtmaKmZNAFuEyOEDY8wUo5M6R//iDZ+Rj7nsc/QjU2nVfa+Md/TNceyOIBRBaWzuYpCgTt3gnBLLK3DHAAgaSNeCWR/wN2QTJxYuWkpQPJLMgy0lGQcoVUqkQyAG+gDk6YmJHO2NQnjCCpHU5KOkglU5Trq8PjAPthJD9chYBqX1oLnDGQbogOjv7ZRAa22lq2wQ67ojZ1NbcQK+u3khPvrSGJrdNoAP2mUKr33yHZu87lZ55aR1NbGmkKZMm0OtrNtFRh+1HDfUZ2r6zl55+aS1Nn9pCr6/dTK+u2Vh0NeDYZs+cSnt3TKTHnltN3T19dMzhs2jW3lNo0zs7aMHRB9JnLjqe0uliLwebpHEMW7ZsoYULF9KaNWtiOUjW3uXoI/YIeAQ8Ah6BaolALIAwceL0Amr5bHqUSPGbOnMK9ChEXwAqiOKZYJO7aRxEJ7mAiBjIMouMckhslExCCAgsVMhMiHU0hJIAGjIABTkxZoKZk8gty28hT0IUGfv6ehisIBOB9fsDhGRTB50yfw794O8vpfUbt1JjYz399sEX6K0NW+nj5xxN1/5gCV396VPpwT++SoccNINee2Mj//4PXzyLnl25jlat3Uz3PbqSrrz4/XTjokfo29evKDrHTQ119J3/81FacOy7aOHXb6RHn1tNt37vSpo2tYV2dvXRlNZ6amttdIBQLXeGj8Mj4BHwCIzzCMQCCK2t7SKUFHFlTCTSPNmymBG/pecZODARULMNUDuUrIFlD7QXoUhMKUxji86B5hgCEmOkPBDIMQMQ1DMoABDIweWR9ROEcwBAgLEIkNDWx5xKL7PFdJ46O4u7GAAQPgRJ5L+5kP75h0vptOMPodkzp9Dy379Al58zn8656vu04Jh30Zc+dQp19/TSVX/3C5rc1kTf/soF9F833U8PP/06bdi0nf7z7y+ln9/6IF3zo86iS+uQA6bTj6+5nPaZNpEW/+4Z+sf/Wkq3/Mfn6NVVG+jtTVvpIycfykZPnkGo7I70tGdl8fO1PQIjEQG/T0ciypXvIx5AaJkq2XrWQBC9A/zHAAESyaxaKN0NJo0sGQVp5xMVRpNN5j4ClkqWnkSuNwQ+C8IREMlkMWZKa2ulpN5ZgEkNmerqGoUPgbJBDiBBygn4HQcGIMDtjfgbt2jKMhhjZ+ftRSRFAITTjzuEfnLtx2jV2k20YfN2um3Fk9Q+uYU+d8kJ9KErvkt7t7fR9d/6JK3fuI0u+OKP6Yi5e9N3v34xPfDoq/TYs6vp3kdeon/9ygV0w20ACEuDkgp0Ey4/80i69n+fQ6+u3kB7dbTRn371BvrOVy+g9snN1FAHwaccwYbaAUJlF7U/eCqLn6/tERiJCPh9OhJRrnwfsQBCS/PkghAJpR/ByIIgAjK3AN4H3EqIrgPtO2Bqgbz9h9oJYbYh0E4ISIvhb0JIlJbAVDITWkwnkMVIUjqV4bIEExS5dVBMn0xISdQUAWbAmYDZU4EKKC+okBPAR3+SImcQjp1L3/3aRfT17y6iJfc9R1t2dNFffPxk+sInTqY//coNdPUVCzhrMHVyM/3k5gcYSHzjS2fTX/7zr7nM0NxUTz/8xmW09N7n6Ec3309vbdhCb2/eQZNaGumn13yMpk6aQE8+v4ZOe/8hdPOSx+nMk+bRq29spKb6DB0+Zxo1NNQ5QKjwmvYHT4UB9NU9AiMQAb9PRyDIQ7CL2ACBSYnWSaDsP2kzhHpi4IQgb83GDmRuAiZvEUcCyOBuAtVB4N9UKdFEjKybwToZGAQoCGFFRCU3SukAXgxSMsD4ojwEbBcftGKymRPGmpSySDbbN4CDkGjsoHfP2Zs+ff6x9IP/dy89vXId46BzTz6czjzxUFr+hxfolKPfRYvveYb232cKzdxrEv32Dy/SxR9+L3V19dLOniw99swqOvrwWdTYUEc7u/vodw+9QL9c+gRNm9xCf3PV6bTs/ufoD0++Sl+4/CT2a9irvZWeXfkmPfXSWrrmC2fQuw+Z6QChwovaHzwVBtBX9wiMQAT8Ph2BIA/BLmIBBNZBiOgbSFlA3BzNbwF/YlLPQvUQaX52TjQ7Z1FhlHZI/GnGSQIQRFhJ5JWFrKgtjwM8H+SIxa8BAEFaH4W8KLoHIEpmwUlAhkGJi1IasS4JUVZcunSg3TO8JNIAEEx8FNCTgmJjCvoJOKYE5XJiSmV/R/nAPrk8BJ70WHCkecRDCJiZNMoeBfaCyKhGA7aD7WJff/vZBfSXnznNAUKFF7U/eCoMoK/uERiBCPh9OgJBHoJdxAQI7VpZiPTFK0gwIJBiDwQQFaWTwTobpFQA4SNtZbTmRp6ApRWSLxae9IO+CBVBMv8EaaNMplBusC6FBKW4W0EyG4V8NshjcDdDLssZAymBgI+gvRVKtly6tJiDQA3tQxDO8jcx3EJJ5Y+sttb0B09tnS8f7fiMgN+ntXHeYwGEluapKOEL98AmcXQcpISgCACQSmfYBAlkQJgTSROkaCfgTR/gARO36CGIRDPLIgd+DCme5LkVUW2eWXyJwQb8E3Isl4yPZC0AECRrEYARJSDiHR5lBJQXWHCJxxP9JAbqIDhAqI0rdg+j9AfPmDiNfhBjPAJ+n9bGCY4FEFpb0OaIyV3MkMSWOcmgAP/AZCyTthALg3JDNstggf0UWKPAuhoEVEhbY1haYDEjdEekRGwpwaJHAgoAPKQMIeUELJfm5WSf7AXB/g1GgZDMgfZMKA9CShjgQSxdumhcSS3XxuVY+Sj9wVN5DH0LHoHhjoDfp8Md4aHZfgkAQfwNhPwnCftMpiHoMAiyA6xYKIDANBBYiBm6BCZ3rIqJQmgE9UCElqxN0rQVLLsgpQX5XQBBnnUQkEEAYoC8MsBAMp3RbIUYQmEVtA6iwwL7TiYBaGQsDhCG5gKqtq34g6fazoiPxyMwMAJ+n9bGVREbIJiOgbzli/ARMghBiyGAgykd8byvNX+WYtYuhoiIkqgsKkDgEoBqKKCEwFLLoTcDFzdUJIl7FvIilAQgAfDA1EdoHKjPQghiIOQEpUYDK0x44JE5B6E2LtBSR+kPnlIj5st7BEY+An6fjnzMy9ljTIDQwWZNNjljAsekL+UBSeVbyQGTNyZrsV3WyVnT/8YtwBu/kROLPBjAKUAngBotyQGJKBPKDQH/gRkO6GJAayOAQor6sj3KcZC2S8looBQh6ooy9iyXIgAqogDhrd6JNOokxc+cQl++8oPexVDOVRxZxx88FQbQV/cIjEAE/D4dgSAPwS5iAoR24RxqZkDUEoUcaG2G1qIIcICJmJMJOuGDbCjv7aaLIGZPYVlB/g4yo6k04ti4+8DIkMptMNKilCYSLJrEZYZcn9o8hy6O3N6oxlHcM8ElDskiLFu+mDkIf/bV79OMA/6E2iZNG4Jwlr+J8xfMowvPeK8DhPJDqKe2mI4aZ3Oj5VoZZ2y+jEdgLEbAAUJtnNWYAKFDE/PipSAPVLyhi1CRcAg0jc9uj+geUG0CJgXiN5FWtswCcwlEuFkyA2zvjG1nNFEgzpH84f2JpTS8HrA/CChJi6XsF5kBfLjdUt0mWVqZ9wk5ZiUtsrpjHy1fvoR6erN024pnaOa++1GGCZej9zlsznQ68vDZDhAqPAX+4KkwgL66R2AEIlDqfeogfgROyiC7iAcQWjuY8SdZAAEIklAQIiC3NSqEMK4AWAVi0yxv92K3bBN6njsfdPYPKgcmhYzvA5VG9VqQF/9c8D1rIBQpNWIcqupoPhCmwGh8BqlncCZh2bI7ePcmZBRReBiVMzF16lTad19XUhyV4PtOPQIeAY+AR2BABGIBhLa2aYUA8alMMr/TQwmQ5ZKhX2A+DEIoZNljJSeKvDKJVoLxAdhdUUWUVCxJyI+SCWBwEbz9o50RnQnQXsB+kEUQl0YpI8g62K91UzCgQM4BfIgo4VGXX7rsTh4Lqy5Wwaejo4NmzZrlGYQqOBc+BI9AqW+48vwZ7dcMP28egaGNQAkAQayYeYLXDAJnC5QEyGBAyw1msYyJm8sLSjwUEkNYDpAOCMks8Ec5DviOyYSqrWD6B0xYlJ1wtkDkluWmVLtJASUq9czdC3lpj9TBsXEU/g6AcO+99/J/eBiM9s19/vnn00UXXeQAYWivb9+aR6CsCDhAKCtsvtIYi0BJACGRKIhLIhMQBRyoyYG0O+ZlouW3f3Nk5OVlsg+VFKVUwWTGAW/3Joks8ssGKpAxYMVE6B0wcNAyBH8v6ovYPpMVNQNhLZj4N3gHyDzwd1SgZcvupOuvv54OPvhgmjZt2qgDhAMPPJDmzZvnAGGM3WB+OLUZAQcItXnefNRDG4FYAKG1tYNLDGakJH+XtkeRNuQEW+DiyJ0I1pFgigimeAhZZlg4M39BzZqE0ajgQzMUCWgboFNCvBrMbppFnDXjALtpyzoAIORyvVx6kJtbVRUh8cyZBAAL4S0YBwEA4dhjj6Xt27fT+vXrhzayJW5t/vz5dMIJJzhAKDFuvrhHYDgi4ABhOKLq26y1CMQDCJBaZiEjzNZS6zcL54Euj1IrgDaBWCwnKcWTtygpin4ChJBEFRHbhNKh8A2ES8BgQdsTtYahVs3Fcs6sjqCOkeAmIIPAoAHbUnIjyzur+qKxIcGZQInBAALAwRtvvFH2uYNaY3NzM82YMYPa2tpYvXHnzp305ptv0oYNG6ivzwiZu97FBz7wATr11FMdIJR9FnxFj8DQRcABwtDF0rdUuxEoASDIxG/aByAHDsggSI9DYNBk3g14u+/r6w4mf6T6JeEgJYtcvjdwZjSbZdFFMMOnrLY/hq2OAAJRO2cGBdw5ISWHXFYAiZUjrNwgLZd57mIYCoCQyWRo7ty5tGDBApoyZQrV19fzcYL8iMzEE088Qffccw9t27ZNMxuDXywOEGr3JvKRj70IOEAYe+fUj6j0CMQGCAIPoroF5sYo6fxQ5VD4CZzyN4XFZIr9EsSaWbIQkiUwV0cIJ0lJgEmQSm5EuQDlAC5JsN0zuhaEpIguCbQ6mlwzuAxGiigUTHtBZaHBg6A8dzRYhsI4CCgxlJtBABg4/vjj6f3vfz+1tLQwMOntxXHCpwJ6DvLvZ599lu644w7atGnTLkGCA4TSL15fwyMwXBFwgDBckfXt1lIESgQISjdQdqI5I0qmQDgErG4I+WNVUbS3eC4fICuQQqtjH+WyfVo2ECtorGueCQwcwBmASiKvIxLMnFVQy2cABDN1AmDIZntUbAkqjwJeuEqhYENqI0JuxLg7O2+rKIMAEHTIIYfQhRdeyOUFfLq7u+n222/n8sKZZ57JGQV8EORHH32UbrnlFl5msI8DhFq6bXysYz0CDhDG+hn244sTgfgAwXp8lZfIb/SmO8B6BKEyYjrTIF0OmJx5ggYnAZoJUgJgT4Qc1A2NSJgTp0fNLHArJNtLJwPraOMVJFMABshEpCnFCo4CLKTlEUBCzaHU/ZFNnBJCcoR/A7ANOA+VlhgmTJhAH/vYx+iggw4KOiC2bt1K3//+97mc8NnPfpZmzpxZ9NsNN9xAK1eudIAQ58r0ZTwCoxgBBwijGHzfddVEoGSAYBwDJhhyKyO/k6s3g3AGIIjEqoYKGpgoiBJAQc2dlFhoOgiCDPTtPiAeil8DgIaQFwEmpJwBkiPWAQdB9i6ZCVZt7INpE/wg8HtagIgVR9j0qcDGTsuXLy47g4D9zJ49mz75yU9SU1MTdXV1cWYAwODnP/85cw8uvfRS2nvvvZl0iAwDYrFs2TJasWLFoOJMnkGomnvCB+IR2C1faFfhGW0tFT9tHoGhjkDZAEFmZgEEgWMiCyhhUheiIBMCtftBfBNEOElbFDhrwEJJ7LqIDAC6HcR0iaWNkAUAOEjAewHti9ZRKTbOBgpCBcYECyGB+4BMQiothEExjzJ3SfwpQknlkhSxv6OOOorOPfdcHvN9993HZEQQE99++20umUA6GRyFiRMn0tlnn02TJk2ixx9/nG6++Wbq6ekZcB4dIAz1pe3b8wiUHwHPIJQfO19z7EQgFkBoaZ5SAGEQH84cBNoHYfbAAAPzBLgEkArsoFl/QO2Ws9ryBy6BgAVwBcwACul/kPzMWjrPbYsscpQQXwfpohBTJtZaYOJjUksWIp4EdNHHpEgZq3AboKkg7ZMANJ2dt5cNEAAKjj76aJ74sU1kBh566CHmGiCbgBg0NDQwqJk8eTJdcskl1N7eTk8++STddNNNg/IQHCCMnZvKj6T2I+AAofbPoR9B5RGIDxB0YpaMgJUWwrZGoQ9IiyO6DkBWtBZDARaSPQA5kXUS2KYZb/c6eetEziUME1EqyDbYh0FbGJNJWQ/AgUmRLNKkJk0RPXR2eIQPg2YorNsB2AZv+MuWLSobIOA40dp42WWXMRBAd8KWLVu4tAAiIkiKZ511Fk2fPp3q6ur4T4CFu+++m5YsWTKoLoIDhMovZt+CR2CoIuAAYagi6dup5QjEAgitrdPYJUEEhzALhyBB3tBFEyF8uxdvBck6iGKi1Oek04EJiabCqNLHYsssDEjJIiAbYCUMEB6F4ChAJEnplJg5Yd8gIpp6o2U5zGESf2bZGMq0FIaGpAhBpCuuuIJ5BlZ7BEnxe9/7HnMRrrzyStp3332D3wAabrzxRm55HOzh4wChlm8jH7tHwCPgERh7ESgJIMhELw6KbNikGQOb8Cy9j/IB2zsDFKgVtNk2GBAw0yRWZVTbaNleTngIkbJDmIkQOWek+LnNMeA1wNPBLKglW6FIRrgQXGIQgDOY1HI5OgjICKDMgHZGE0dCBuG6665jgPCJT3yCMwdyTAV64YUX6Be/+AUBRAz2cYAw9m4uPyKPgEfAI1DLEYgPEFRXgFsb+W0cXQXWYSBdDOyyyNwDcANISYjQRhD+ALIH5t0gdEZZBlkA2RacHjGZh2UHAyK8PytDJFKUTmWUpGiKjAoCIIikjpPS8RACBLal5tRGipYuLZ+DYCcc4kinn346HXHEEVxKwPiRKcCf6G4AkMFYIOP8m9/8hlatWuVCSbV8t1TZ2EtNg483ln2p8eFHg1s2V9lVXtvDqfVrMBZAaGlpR4Oipvcx0WfDSV/9FMR4ScSNOP2fUL0DJjVKWUDaHcWDgTUQGCDId/aRgBYol+0NpJO53JCA0ZJILfPEjywCQIKWHax7gdsrpc6gYMCASYEzEyLhnKyoi8HGiocJ9BCOO+44OuaYY7idkfUf9IPWR4CCRYsW0dq1awW47OLjGYTafhCMxuhLffiMt8mv1Pg4QBiNq3hs77PWr8FYAKFVzZqCtL9mE4xXYDoIxjVAiQFkQhFHgsSxAQNRQ+QbEVkF7myQVkhYRcv3ABZ9AZgQF0cABJQrkLXQVkrsg9sjwSnQLARaLNm0SfkSqr0gMsxIckCcSYycllWgg9D/kkb2YK+99mJtBLQzmlnT66+/Tq+88kqQVdjdreAAYWw/KIbj6Ep9+DhA2PNZGG8x2nNEfIlKIlDqPVptILUMgCBiQ3gb5rJBxOXR/g6pZRZMUpGjvr4e4Szoi33o6SCTtpUWmOioVs7QLgiyFuInrSUM8XlIZ+pFiInLEiFnwRIHpuIonAclSaoKJADF8uXl6yDs7oIBOEBcENhSLg4HCJXchuNz3VKur2p78IzEGSs1PuMxRiNxHsbzPmr9GowHEFo7pMTAGgIh3TBq2WwTM1LsKVU1tAsDE7KoJuo3auss/5RJXtoRw04GtChyut5aKrUsge+wXColKooAAuAxwCESXQ92QsQVEq2OyBpIiUNX4OxEHLMm7AdKiBBAwt9FyEkmftFkEOAS/Tv7ShQKvJ4tZ3HAdvAdQIRty/488cQT3e55PD9Jyjj2Uh8+4+3tuNT4OEAo4yL0VXYbgVq/BmMBhLbWaQV2WmQ1QplopTsAk6Gm73Xyl8lPhJFsgpRsA/QHFBJoW+TA4FkJAhO7dErwtqCDwOUEiDCBiwChpIx2SIhLIxMjkxiTcR6Q3SAGCKLLKGCEhZkK8ZQUQTQ84YQT2GgJE/6sWbPo5ZdfZt0DlBLQ4ogPlkMnAwAAOAf4HR0OCC6+h1YCBJSeeeYZWrduHR166KE0Y8YMWrNmDRs6rV69mt797nfTe97zHt5P9GMPdYwZWgsLFy7k9cbbw96fQwMjUOrDZ7xdM6XGxwGC32VDHYFavwZjAQToIHBZQeWK+UYyo6Q83qaRXQDPIKVvxyKrHAUPsoyFX97upfMwx8Ah+vASN0ctC6ihk1g+m8GTCCgFbo4my6ycBul8UC8I26lmMLgDg2iPJEVM1OhOOO2007gLAW/6mMxBNoTh0oYNG3iinzdvHgMEBBIdDPBagJQyVBYbGxs5Hjg2gIdHHnmEHnvsMTrnnHOoo6OD18FvkGfG/iDP7ABhqG/Rsbu9Uh8+DhD2fC2MtxjtOSK+RCURKPUerTaQGhMgdKhCkhbxNbUuB2+zfphuR4nBBJKkfKB+Dfr2bm/zMncjZc9hCc6DdUQgI4DNi8WzaiCkzLI5yXLL+GB/WAdcBwYlDBCgwAg9BBF2Ek6DdDjg+z25OWJi32+//ejiiy/mSR5Zgb6+Prr//vvptddeo8MPP5zmz5/Pkzz8FqCBgDf8e++9l7ML5513XgAOLJMCwiIAxKmnnkpokbRyA0AHAAO6IBwgVHI7jq91S334jLfJr9T4VNvDeXxdzWPvaMu5/uQaLJ4PRzMysQBCS8vUQtCxoGqHMl8LQBDugPyb3+zVrEmcGENCo2gcSMYBH2n7s7KDtj8GMsuynPg+qC001++hN5DjyV6ACABEissMLLDEXINQ1RGZCBZK4hZMVV/M52jpsjt2K7WMzoRjjz2WTjnlFJ60AQB6e3tZ8AiTPNoaDzvsMAYIyCwgQ4D/0LmA9kaAB/yJ2GBbiAVKCfBtQFYC2QJ8IKq0Y8cOBgcADQ4QRvN2qK19l/oAcoCw5/M73mK054iMvyVQks40oFU/bFkfD1HA/JXvRVY7PO44AOH/A9SJgu+NrwXXAAAAAElFTkSuQmCC;" vertex="1" parent="1">
                    <mxGeometry x="10" y="10" width="520" height="510" as="geometry"/>
                </mxCell>
                <mxCell id="3" value="" style="whiteSpace=wrap;html=1;fillColor=none;strokeColor=#FF0000;strokeWidth=3;" vertex="1" parent="1">
                    <mxGeometry x="50" y="450" width="60" height="50" as="geometry"/>
                </mxCell>
                <mxCell id="4" value="" style="whiteSpace=wrap;html=1;fillColor=none;strokeColor=#FF0000;strokeWidth=3;" vertex="1" parent="1">
                    <mxGeometry x="110" y="130" width="50" height="40" as="geometry"/>
                </mxCell>
                <mxCell id="5" value="1" style="text;strokeColor=#FF0000;align=center;fillColor=#FFFFFF;html=1;verticalAlign=middle;whiteSpace=wrap;rounded=0;strokeWidth=3;fontColor=#000000;fontSize=20;" vertex="1" parent="1">
                    <mxGeometry x="40" y="410" width="40" height="30" as="geometry"/>
                </mxCell>
                <mxCell id="6" value="2" style="text;strokeColor=#FF0000;align=center;fillColor=#FFFFFF;html=1;verticalAlign=middle;whiteSpace=wrap;rounded=0;strokeWidth=3;fontColor=#000000;fontSize=20;" vertex="1" parent="1">
                    <mxGeometry x="80" y="90" width="40" height="30" as="geometry"/>
                </mxCell>
            </root>
        </mxGraphModel>
    </diagram>
</mxfile>